<svg width="184" height="49" viewBox="0 0 184 49" fill="none" xmlns="http://www.w3.org/2000/svg">
<g filter="url(#filter0_d_2162_16923)">
<rect x="3.15625" y="2" width="178.193" height="43.731" rx="8.69241" fill="#E5F8F3"/>
<rect x="3.69953" y="2.54328" width="177.107" height="42.6445" rx="8.14913" stroke="#E5F8F3" stroke-width="1.08655"/>
<path d="M31.4066 17.5273V30.2038M25.0684 23.8656H37.7448" stroke="black" stroke-width="1.81454" stroke-linecap="round" stroke-linejoin="round"/>
<path d="M51.1188 29.8657L54.7868 19.4357H56.8308L60.4988 29.8657H58.7348L57.9368 27.5277H53.6948L52.8828 29.8657H51.1188ZM54.1708 26.0577H57.4328L55.5848 20.5977H56.0468L54.1708 26.0577ZM64.8088 30.0337C64.0808 30.0337 63.4274 29.8611 62.8488 29.5157C62.2794 29.1611 61.8268 28.6851 61.4908 28.0877C61.1641 27.4904 61.0008 26.8184 61.0008 26.0717C61.0008 25.3251 61.1688 24.6531 61.5048 24.0557C61.8408 23.4584 62.2934 22.9871 62.8628 22.6417C63.4321 22.2964 64.0761 22.1237 64.7948 22.1237C65.4014 22.1237 65.9381 22.2451 66.4048 22.4877C66.8714 22.7304 67.2401 23.0664 67.5108 23.4957L67.2728 23.8597V19.2677H68.8408V29.8657H67.3428V28.3257L67.5248 28.6197C67.2634 29.0771 66.8901 29.4271 66.4048 29.6697C65.9194 29.9124 65.3874 30.0337 64.8088 30.0337ZM64.9628 28.5637C65.4014 28.5637 65.7934 28.4564 66.1388 28.2417C66.4934 28.0271 66.7688 27.7331 66.9648 27.3597C67.1701 26.9771 67.2728 26.5477 67.2728 26.0717C67.2728 25.5957 67.1701 25.1711 66.9648 24.7977C66.7688 24.4244 66.4934 24.1304 66.1388 23.9157C65.7934 23.7011 65.4014 23.5937 64.9628 23.5937C64.5241 23.5937 64.1274 23.7011 63.7728 23.9157C63.4181 24.1304 63.1428 24.4244 62.9468 24.7977C62.7508 25.1711 62.6528 25.5957 62.6528 26.0717C62.6528 26.5477 62.7508 26.9771 62.9468 27.3597C63.1428 27.7331 63.4134 28.0271 63.7588 28.2417C64.1134 28.4564 64.5148 28.5637 64.9628 28.5637ZM74.1877 30.0337C73.4597 30.0337 72.8063 29.8611 72.2277 29.5157C71.6583 29.1611 71.2057 28.6851 70.8697 28.0877C70.543 27.4904 70.3797 26.8184 70.3797 26.0717C70.3797 25.3251 70.5477 24.6531 70.8837 24.0557C71.2197 23.4584 71.6723 22.9871 72.2417 22.6417C72.811 22.2964 73.455 22.1237 74.1737 22.1237C74.7803 22.1237 75.317 22.2451 75.7837 22.4877C76.2503 22.7304 76.619 23.0664 76.8897 23.4957L76.6517 23.8597V19.2677H78.2197V29.8657H76.7217V28.3257L76.9037 28.6197C76.6423 29.0771 76.269 29.4271 75.7837 29.6697C75.2983 29.9124 74.7663 30.0337 74.1877 30.0337ZM74.3417 28.5637C74.7803 28.5637 75.1723 28.4564 75.5177 28.2417C75.8723 28.0271 76.1477 27.7331 76.3437 27.3597C76.549 26.9771 76.6517 26.5477 76.6517 26.0717C76.6517 25.5957 76.549 25.1711 76.3437 24.7977C76.1477 24.4244 75.8723 24.1304 75.5177 23.9157C75.1723 23.7011 74.7803 23.5937 74.3417 23.5937C73.903 23.5937 73.5063 23.7011 73.1517 23.9157C72.797 24.1304 72.5217 24.4244 72.3257 24.7977C72.1297 25.1711 72.0317 25.5957 72.0317 26.0717C72.0317 26.5477 72.1297 26.9771 72.3257 27.3597C72.5217 27.7331 72.7923 28.0271 73.1377 28.2417C73.4923 28.4564 73.8937 28.5637 74.3417 28.5637ZM82.5138 29.8657V22.2917H84.0258V23.7757L83.8438 23.5797C84.0305 23.1037 84.3292 22.7444 84.7398 22.5017C85.1505 22.2497 85.6265 22.1237 86.1678 22.1237C86.7278 22.1237 87.2225 22.2451 87.6518 22.4877C88.0812 22.7304 88.4172 23.0664 88.6598 23.4957C88.9025 23.9251 89.0238 24.4197 89.0238 24.9797V29.8657H87.4558V25.3997C87.4558 25.0171 87.3858 24.6951 87.2458 24.4337C87.1058 24.1631 86.9052 23.9577 86.6438 23.8177C86.3918 23.6684 86.1025 23.5937 85.7758 23.5937C85.4492 23.5937 85.1552 23.6684 84.8938 23.8177C84.6418 23.9577 84.4458 24.1631 84.3058 24.4337C84.1658 24.7044 84.0958 25.0264 84.0958 25.3997V29.8657H82.5138ZM94.273 30.0337C93.517 30.0337 92.845 29.8611 92.257 29.5157C91.6783 29.1611 91.2256 28.6851 90.899 28.0877C90.5723 27.4811 90.409 26.8044 90.409 26.0577C90.409 25.2924 90.5723 24.6157 90.899 24.0277C91.235 23.4397 91.683 22.9777 92.243 22.6417C92.803 22.2964 93.4376 22.1237 94.147 22.1237C94.7163 22.1237 95.225 22.2217 95.673 22.4177C96.121 22.6137 96.499 22.8844 96.807 23.2297C97.115 23.5657 97.3483 23.9531 97.507 24.3917C97.675 24.8304 97.759 25.2971 97.759 25.7917C97.759 25.9131 97.7543 26.0391 97.745 26.1697C97.7356 26.3004 97.717 26.4217 97.689 26.5337H91.655V25.2737H96.793L96.037 25.8477C96.1303 25.3904 96.0976 24.9844 95.939 24.6297C95.7896 24.2657 95.5563 23.9811 95.239 23.7757C94.931 23.5611 94.567 23.4537 94.147 23.4537C93.727 23.4537 93.3536 23.5611 93.027 23.7757C92.7003 23.9811 92.4483 24.2797 92.271 24.6717C92.0936 25.0544 92.0236 25.5211 92.061 26.0717C92.0143 26.5851 92.0843 27.0331 92.271 27.4157C92.467 27.7984 92.7376 28.0971 93.083 28.3117C93.4376 28.5264 93.839 28.6337 94.287 28.6337C94.7443 28.6337 95.1316 28.5311 95.449 28.3257C95.7756 28.1204 96.0323 27.8544 96.219 27.5277L97.507 28.1577C97.3576 28.5124 97.1243 28.8344 96.807 29.1237C96.499 29.4037 96.1256 29.6277 95.687 29.7957C95.2576 29.9544 94.7863 30.0337 94.273 30.0337ZM101.137 29.8657L98.5329 22.2917H100.213L102.201 28.3257H101.613L103.643 22.2917H105.085L107.101 28.3257H106.513L108.515 22.2917H110.195L107.577 29.8657H106.149L104.105 23.6917H104.623L102.579 29.8657H101.137ZM116.527 30.0337C115.752 30.0337 115.071 29.8424 114.483 29.4597C113.904 29.0771 113.498 28.5637 113.265 27.9197L114.483 27.3457C114.688 27.7751 114.968 28.1157 115.323 28.3677C115.687 28.6197 116.088 28.7457 116.527 28.7457C116.9 28.7457 117.203 28.6617 117.437 28.4937C117.67 28.3257 117.787 28.0971 117.787 27.8077C117.787 27.6211 117.735 27.4717 117.633 27.3597C117.53 27.2384 117.399 27.1404 117.241 27.0657C117.091 26.9911 116.937 26.9351 116.779 26.8977L115.589 26.5617C114.935 26.3751 114.445 26.0951 114.119 25.7217C113.801 25.3391 113.643 24.8957 113.643 24.3917C113.643 23.9344 113.759 23.5377 113.993 23.2017C114.226 22.8564 114.548 22.5904 114.959 22.4037C115.369 22.2171 115.831 22.1237 116.345 22.1237C117.035 22.1237 117.651 22.2964 118.193 22.6417C118.734 22.9777 119.117 23.4491 119.341 24.0557L118.123 24.6297C117.973 24.2657 117.735 23.9764 117.409 23.7617C117.091 23.5471 116.732 23.4397 116.331 23.4397C115.985 23.4397 115.71 23.5237 115.505 23.6917C115.299 23.8504 115.197 24.0604 115.197 24.3217C115.197 24.4991 115.243 24.6484 115.337 24.7697C115.43 24.8817 115.551 24.9751 115.701 25.0497C115.85 25.1151 116.004 25.1711 116.163 25.2177L117.395 25.5817C118.02 25.7591 118.501 26.0391 118.837 26.4217C119.173 26.7951 119.341 27.2431 119.341 27.7657C119.341 28.2137 119.219 28.6104 118.977 28.9557C118.743 29.2917 118.417 29.5577 117.997 29.7537C117.577 29.9404 117.087 30.0337 116.527 30.0337ZM124.447 30.0337C123.691 30.0337 123.019 29.8611 122.431 29.5157C121.852 29.1611 121.399 28.6851 121.073 28.0877C120.746 27.4811 120.583 26.8044 120.583 26.0577C120.583 25.2924 120.746 24.6157 121.073 24.0277C121.409 23.4397 121.857 22.9777 122.417 22.6417C122.977 22.2964 123.611 22.1237 124.321 22.1237C124.89 22.1237 125.399 22.2217 125.847 22.4177C126.295 22.6137 126.673 22.8844 126.981 23.2297C127.289 23.5657 127.522 23.9531 127.681 24.3917C127.849 24.8304 127.933 25.2971 127.933 25.7917C127.933 25.9131 127.928 26.0391 127.919 26.1697C127.909 26.3004 127.891 26.4217 127.863 26.5337H121.829V25.2737H126.967L126.211 25.8477C126.304 25.3904 126.271 24.9844 126.113 24.6297C125.963 24.2657 125.73 23.9811 125.413 23.7757C125.105 23.5611 124.741 23.4537 124.321 23.4537C123.901 23.4537 123.527 23.5611 123.201 23.7757C122.874 23.9811 122.622 24.2797 122.445 24.6717C122.267 25.0544 122.197 25.5211 122.235 26.0717C122.188 26.5851 122.258 27.0331 122.445 27.4157C122.641 27.7984 122.911 28.0971 123.257 28.3117C123.611 28.5264 124.013 28.6337 124.461 28.6337C124.918 28.6337 125.305 28.5311 125.623 28.3257C125.949 28.1204 126.206 27.8544 126.393 27.5277L127.681 28.1577C127.531 28.5124 127.298 28.8344 126.981 29.1237C126.673 29.4037 126.299 29.6277 125.861 29.7957C125.431 29.9544 124.96 30.0337 124.447 30.0337ZM133.075 30.0337C132.319 30.0337 131.647 29.8611 131.059 29.5157C130.48 29.1611 130.018 28.6851 129.673 28.0877C129.337 27.4904 129.169 26.8137 129.169 26.0577C129.169 25.3111 129.337 24.6391 129.673 24.0417C130.009 23.4444 130.471 22.9777 131.059 22.6417C131.647 22.2964 132.319 22.1237 133.075 22.1237C133.588 22.1237 134.069 22.2171 134.517 22.4037C134.965 22.5811 135.352 22.8284 135.679 23.1457C136.015 23.4631 136.262 23.8317 136.421 24.2517L135.035 24.8957C134.876 24.5037 134.619 24.1911 134.265 23.9577C133.919 23.7151 133.523 23.5937 133.075 23.5937C132.645 23.5937 132.258 23.7011 131.913 23.9157C131.577 24.1211 131.311 24.4151 131.115 24.7977C130.919 25.1711 130.821 25.5957 130.821 26.0717C130.821 26.5477 130.919 26.9771 131.115 27.3597C131.311 27.7331 131.577 28.0271 131.913 28.2417C132.258 28.4564 132.645 28.5637 133.075 28.5637C133.532 28.5637 133.929 28.4471 134.265 28.2137C134.61 27.9711 134.867 27.6491 135.035 27.2477L136.421 27.9057C136.271 28.3071 136.029 28.6711 135.693 28.9977C135.366 29.3151 134.979 29.5671 134.531 29.7537C134.083 29.9404 133.597 30.0337 133.075 30.0337ZM141.243 29.9497C140.45 29.9497 139.834 29.7257 139.395 29.2777C138.956 28.8297 138.737 28.1997 138.737 27.3877V23.7197H137.407V22.2917H137.617C137.972 22.2917 138.247 22.1891 138.443 21.9837C138.639 21.7784 138.737 21.4984 138.737 21.1437V20.5557H140.319V22.2917H142.041V23.7197H140.319V27.3177C140.319 27.5791 140.361 27.8031 140.445 27.9897C140.529 28.1671 140.664 28.3071 140.851 28.4097C141.038 28.5031 141.28 28.5497 141.579 28.5497C141.654 28.5497 141.738 28.5451 141.831 28.5357C141.924 28.5264 142.013 28.5171 142.097 28.5077V29.8657C141.966 29.8844 141.822 29.9031 141.663 29.9217C141.504 29.9404 141.364 29.9497 141.243 29.9497ZM143.641 29.8657V22.2917H145.223V29.8657H143.641ZM143.641 21.2557V19.4357H145.223V21.2557H143.641ZM150.726 30.0337C149.998 30.0337 149.331 29.8611 148.724 29.5157C148.127 29.1704 147.651 28.6991 147.296 28.1017C146.942 27.5044 146.764 26.8277 146.764 26.0717C146.764 25.3064 146.942 24.6297 147.296 24.0417C147.651 23.4444 148.127 22.9777 148.724 22.6417C149.322 22.2964 149.989 22.1237 150.726 22.1237C151.473 22.1237 152.14 22.2964 152.728 22.6417C153.326 22.9777 153.797 23.4444 154.142 24.0417C154.497 24.6297 154.674 25.3064 154.674 26.0717C154.674 26.8371 154.497 27.5184 154.142 28.1157C153.788 28.7131 153.312 29.1844 152.714 29.5297C152.117 29.8657 151.454 30.0337 150.726 30.0337ZM150.726 28.5637C151.174 28.5637 151.571 28.4564 151.916 28.2417C152.262 28.0271 152.532 27.7331 152.728 27.3597C152.934 26.9771 153.036 26.5477 153.036 26.0717C153.036 25.5957 152.934 25.1711 152.728 24.7977C152.532 24.4244 152.262 24.1304 151.916 23.9157C151.571 23.7011 151.174 23.5937 150.726 23.5937C150.288 23.5937 149.891 23.7011 149.536 23.9157C149.191 24.1304 148.916 24.4244 148.71 24.7977C148.514 25.1711 148.416 25.5957 148.416 26.0717C148.416 26.5477 148.514 26.9771 148.71 27.3597C148.916 27.7331 149.191 28.0271 149.536 28.2417C149.891 28.4564 150.288 28.5637 150.726 28.5637ZM156.219 29.8657V22.2917H157.731V23.7757L157.549 23.5797C157.736 23.1037 158.034 22.7444 158.445 22.5017C158.856 22.2497 159.332 22.1237 159.873 22.1237C160.433 22.1237 160.928 22.2451 161.357 22.4877C161.786 22.7304 162.122 23.0664 162.365 23.4957C162.608 23.9251 162.729 24.4197 162.729 24.9797V29.8657H161.161V25.3997C161.161 25.0171 161.091 24.6951 160.951 24.4337C160.811 24.1631 160.61 23.9577 160.349 23.8177C160.097 23.6684 159.808 23.5937 159.481 23.5937C159.154 23.5937 158.86 23.6684 158.599 23.8177C158.347 23.9577 158.151 24.1631 158.011 24.4337C157.871 24.7044 157.801 25.0264 157.801 25.3997V29.8657H156.219Z" fill="black"/>
</g>
<defs>
<filter id="filter0_d_2162_16923" x="0.983148" y="0.913449" width="182.54" height="48.0772" filterUnits="userSpaceOnUse" color-interpolation-filters="sRGB">
<feFlood flood-opacity="0" result="BackgroundImageFix"/>
<feColorMatrix in="SourceAlpha" type="matrix" values="0 0 0 0 0 0 0 0 0 0 0 0 0 0 0 0 0 0 127 0" result="hardAlpha"/>
<feOffset dy="1.08655"/>
<feGaussianBlur stdDeviation="1.08655"/>
<feColorMatrix type="matrix" values="0 0 0 0 0.0627451 0 0 0 0 0.0941176 0 0 0 0 0.156863 0 0 0 0.05 0"/>
<feBlend mode="normal" in2="BackgroundImageFix" result="effect1_dropShadow_2162_16923"/>
<feBlend mode="normal" in="SourceGraphic" in2="effect1_dropShadow_2162_16923" result="shape"/>
</filter>
</defs>
</svg>
