<svg width="184" height="49" viewBox="0 0 184 49" fill="none" xmlns="http://www.w3.org/2000/svg">
<g filter="url(#filter0_d_2162_16923)">
<rect x="3.15625" y="2" width="178.193" height="43.731" rx="8.69241" fill="#E5F8F3"/>
<rect x="3.69953" y="2.54328" width="177.107" height="42.6445" rx="8.14913" stroke="#E5F8F3" stroke-width="1.08655"/>
<path d="M31.4066 17.5273V30.2038M25.0684 23.8656H37.7448" stroke="black" stroke-width="1.81454" stroke-linecap="round" stroke-linejoin="round"/>
<path d="M51.1188 29.8657L54.7868 19.4357H56.8308L60.4988 29.8657H58.7348L57.9368 27.5277H53.6948L52.8828 29.8657H51.1188ZM54.1708 26.0577H57.4328L55.5848 20.5977H56.0468L54.1708 26.0577ZM64.8088 30.0337C64.0808 30.0337 63.4274 29.8611 62.8488 29.5157C62.2794 29.1611 61.8268 28.6851 61.4908 28.0877C61.1641 27.4904 61.0008 26.8184 61.0008 26.0717C61.0008 25.3251 61.1688 24.6531 61.5048 24.0557C61.8408 23.4584 62.2934 22.9871 62.8628 22.6417C63.4321 22.2964 64.0761 22.1237 64.7948 22.1237C65.4014 22.1237 65.9381 22.2451 66.4048 22.4877C66.8714 22.7304 67.2401 23.0664 67.5108 23.4957L67.2728 23.8597V19.2677H68.8408V29.8657H67.3428V28.3257L67.5248 28.6197C67.2634 29.0771 66.8901 29.4271 66.4048 29.6697C65.9194 29.9124 65.3874 30.0337 64.8088 30.0337ZM64.9628 28.5637C65.4014 28.5637 65.7934 28.4564 66.1388 28.2417C66.4934 28.0271 66.7688 27.7331 66.9648 27.3597C67.1701 26.9771 67.2728 26.5477 67.2728 26.0717C67.2728 25.5957 67.1701 25.1711 66.9648 24.7977C66.7688 24.4244 66.4934 24.1304 66.1388 23.9157C65.7934 23.7011 65.4014 23.5937 64.9628 23.5937C64.5241 23.5937 64.1274 23.7011 63.7728 23.9157C63.4181 24.1304 63.1428 24.4244 62.9468 24.7977C62.7508 25.1711 62.6528 25.5957 62.6528 26.0717C62.6528 26.5477 62.7508 26.9771 62.9468 27.3597C63.1428 27.7331 63.4134 28.0271 63.7588 28.2417C64.1134 28.4564 64.5148 28.5637 64.9628 28.5637ZM74.1877 30.0337C73.4597 30.0337 72.8063 29.8611 72.2277 29.5157C71.6583 29.1611 71.2057 28.6851 70.8697 28.0877C70.543 27.4904 70.3797 26.8184 70.3797 26.0717C70.3797 25.3251 70.5477 24.6531 70.8837 24.0557C71.2197 23.4584 71.6723 22.9871 72.2417 22.6417C72.811 22.2964 73.455 22.1237 74.1737 22.1237C74.7803 22.1237 75.317 22.2451 75.7837 22.4877C76.2503 22.7304 76.619 23.0664 76.8897 23.4957L76.6517 23.8597V19.2677H78.2197V29.8657H76.7217V28.3257L76.9037 28.6197C76.6423 29.0771 76.269 29.4271 75.7837 29.6697C75.2983 29.9124 74.7663 30.0337 74.1877 30.0337ZM74.3417 28.5637C74.7803 28.5637 75.1723 28.4564 75.5177 28.2417C75.8723 28.0271 76.1477 27.7331 76.3437 27.3597C76.549 26.9771 76.6517 26.5477 76.6517 26.0717C76.6517 25.5957 76.549 25.1711 76.3437 24.7977C76.1477 24.4244 75.8723 24.1304 75.5177 23.9157C75.1723 23.7011 74.7803 23.5937 74.3417 23.5937C73.903 23.5937 73.5063 23.7011 73.1517 23.9157C72.797 24.1304 72.5217 24.4244 72.3257 24.7977C72.1297 25.1711 72.0317 25.5957 72.0317 26.0717C72.0317 26.5477 72.1297 26.9771 72.3257 27.3597C72.5217 27.7331 72.7923 28.0271 73.1377 28.2417C73.4923 28.4564 73.8937 28.5637 74.3417 28.5637ZM82.5138 29.8657V22.2917H84.0258V23.7757L83.8438 23.5797C84.0305 23.1037 84.3292 22.7444 84.7398 22.5017C85.1505 22.2497 85.6265 22.1237 86.1678 22.1237C86.7278 22.1237 87.2225 22.2451 87.6518 22.4877C88.0812 22.7304 88.4172 23.0664 88.6598 23.4957C88.9025 23.9251 89.0238 24.4197 89.0238 24.9797V29.8657H87.4558V25.3997C87.4558 25.0171 87.3858 24.6951 87.2458 24.4337C87.1058 24.1631 86.9052 23.9577 86.6438 23.8177C86.3918 23.6684 86.1025 23.5937 85.7758 23.5937C85.4492 23.5937 85.1552 23.6684 84.8938 23.8177C84.6418 23.9577 84.4458 24.1631 84.3058 24.4337C84.1658 24.7044 84.0958 25.0264 84.0958 25.3997V29.8657H82.5138ZM94.273 30.0337C93.517 30.0337 92.845 29.8611 92.257 29.5157C91.6783 29.1611 91.2256 28.6851 90.899 28.0877C90.5723 27.4811 90.409 26.8044 90.409 26.0577C90.409 25.2924 90.5723 24.6157 90.899 24.0277C91.235 23.4397 91.683 22.9777 92.243 22.6417C92.803 22.2964 93.4376 22.1237 94.147 22.1237C94.7163 22.1237 95.225 22.2217 95.673 22.4177C96.121 22.6137 96.499 22.8844 96.807 23.2297C97.115 23.5657 97.3483 23.9531 97.507 24.3917C97.675 24.8304 97.759 25.2971 97.759 25.7917C97.759 25.9131 97.7543 26.0391 97.745 26.1697C97.7356 26.3004 97.717 26.4217 97.689 26.5337H91.655V25.2737H96.793L96.037 25.8477C96.1303 25.3904 96.0976 24.9844 95.939 24.6297C95.7896 24.2657 95.5563 23.9811 95.239 23.7757C94.931 23.5611 94.567 23.4537 94.147 23.4537C93.727 23.4537 93.3536 23.5611 93.027 23.7757C92.7003 23.9811 92.4483 24.2797 92.271 24.6717C92.0936 25.0544 92.0236 25.5211 92.061 26.0717C92.0143 26.5851 92.0843 27.0331 92.271 27.4157C92.467 27.7984 92.7376 28.0971 93.083 28.3117C93.4376 28.5264 93.839 28.6337 94.287 28.6337C94.7443 28.6337 95.1316 28.5311 95.449 28.3257C95.7756 28.1204 96.0323 27.8544 96.219 27.5277L97.507 28.1577C97.3576 28.5124 97.1243 28.8344 96.807 29.1237C96.499 29.4037 96.1256 29.6277 95.687 29.7957C95.2576 29.9544 94.7863 30.0337 94.273 30.0337ZM101.137 29.8657L98.5329 22.2917H100.213L102.201 28.3257H101.613L103.643 22.2917H105.085L107.101 28.3257H106.513L108.515 22.2917H110.195L107.577 29.8657H106.149L104.105 23.6917H104.623L102.579 29.8657H101.137ZM117.325 30.0337C116.569 30.0337 115.897 29.8611 115.309 29.5157C114.73 29.1611 114.268 28.6851 113.923 28.0877C113.587 27.4904 113.419 26.8137 113.419 26.0577C113.419 25.3111 113.587 24.6391 113.923 24.0417C114.259 23.4444 114.721 22.9777 115.309 22.6417C115.897 22.2964 116.569 22.1237 117.325 22.1237C117.838 22.1237 118.319 22.2171 118.767 22.4037C119.215 22.5811 119.602 22.8284 119.929 23.1457C120.265 23.4631 120.512 23.8317 120.671 24.2517L119.285 24.8957C119.126 24.5037 118.869 24.1911 118.515 23.9577C118.169 23.7151 117.773 23.5937 117.325 23.5937C116.895 23.5937 116.508 23.7011 116.163 23.9157C115.827 24.1211 115.561 24.4151 115.365 24.7977C115.169 25.1711 115.071 25.5957 115.071 26.0717C115.071 26.5477 115.169 26.9771 115.365 27.3597C115.561 27.7331 115.827 28.0271 116.163 28.2417C116.508 28.4564 116.895 28.5637 117.325 28.5637C117.782 28.5637 118.179 28.4471 118.515 28.2137C118.86 27.9711 119.117 27.6491 119.285 27.2477L120.671 27.9057C120.521 28.3071 120.279 28.6711 119.943 28.9977C119.616 29.3151 119.229 29.5671 118.781 29.7537C118.333 29.9404 117.847 30.0337 117.325 30.0337ZM125.871 30.0337C125.143 30.0337 124.476 29.8611 123.869 29.5157C123.272 29.1704 122.796 28.6991 122.441 28.1017C122.086 27.5044 121.909 26.8277 121.909 26.0717C121.909 25.3064 122.086 24.6297 122.441 24.0417C122.796 23.4444 123.272 22.9777 123.869 22.6417C124.466 22.2964 125.134 22.1237 125.871 22.1237C126.618 22.1237 127.285 22.2964 127.873 22.6417C128.47 22.9777 128.942 23.4444 129.287 24.0417C129.642 24.6297 129.819 25.3064 129.819 26.0717C129.819 26.8371 129.642 27.5184 129.287 28.1157C128.932 28.7131 128.456 29.1844 127.859 29.5297C127.262 29.8657 126.599 30.0337 125.871 30.0337ZM125.871 28.5637C126.319 28.5637 126.716 28.4564 127.061 28.2417C127.406 28.0271 127.677 27.7331 127.873 27.3597C128.078 26.9771 128.181 26.5477 128.181 26.0717C128.181 25.5957 128.078 25.1711 127.873 24.7977C127.677 24.4244 127.406 24.1304 127.061 23.9157C126.716 23.7011 126.319 23.5937 125.871 23.5937C125.432 23.5937 125.036 23.7011 124.681 23.9157C124.336 24.1304 124.06 24.4244 123.855 24.7977C123.659 25.1711 123.561 25.5957 123.561 26.0717C123.561 26.5477 123.659 26.9771 123.855 27.3597C124.06 27.7331 124.336 28.0271 124.681 28.2417C125.036 28.4564 125.432 28.5637 125.871 28.5637ZM131.363 29.8657V19.2677H132.945V29.8657H131.363ZM137.497 30.0337C136.928 30.0337 136.428 29.9077 135.999 29.6557C135.57 29.3944 135.234 29.0351 134.991 28.5777C134.758 28.1111 134.641 27.5744 134.641 26.9677V22.2917H136.223V26.8277C136.223 27.1731 136.293 27.4764 136.433 27.7377C136.573 27.9991 136.769 28.2044 137.021 28.3537C137.273 28.4937 137.562 28.5637 137.889 28.5637C138.225 28.5637 138.519 28.4891 138.771 28.3397C139.023 28.1904 139.219 27.9804 139.359 27.7097C139.508 27.4391 139.583 27.1217 139.583 26.7577V22.2917H141.151V29.8657H139.653V28.3817L139.821 28.5777C139.644 29.0444 139.35 29.4037 138.939 29.6557C138.528 29.9077 138.048 30.0337 137.497 30.0337ZM142.998 29.8657V22.2917H144.51V23.9297L144.314 23.6777C144.473 23.1644 144.762 22.7771 145.182 22.5157C145.602 22.2544 146.083 22.1237 146.624 22.1237C147.231 22.1237 147.768 22.2871 148.234 22.6137C148.71 22.9311 149.028 23.3557 149.186 23.8877L148.738 23.9297C148.962 23.3231 149.303 22.8704 149.76 22.5717C150.227 22.2731 150.759 22.1237 151.356 22.1237C151.879 22.1237 152.35 22.2451 152.77 22.4877C153.2 22.7304 153.54 23.0664 153.792 23.4957C154.044 23.9251 154.17 24.4151 154.17 24.9657V29.8657H152.588V25.3997C152.588 25.0171 152.518 24.6951 152.378 24.4337C152.248 24.1631 152.061 23.9577 151.818 23.8177C151.585 23.6684 151.31 23.5937 150.992 23.5937C150.675 23.5937 150.395 23.6684 150.152 23.8177C149.91 23.9577 149.718 24.1631 149.578 24.4337C149.438 24.7044 149.368 25.0264 149.368 25.3997V29.8657H147.8V25.3997C147.8 25.0171 147.73 24.6951 147.59 24.4337C147.46 24.1631 147.273 23.9577 147.03 23.8177C146.797 23.6684 146.517 23.5937 146.19 23.5937C145.873 23.5937 145.593 23.6684 145.35 23.8177C145.108 23.9577 144.916 24.1631 144.776 24.4337C144.646 24.7044 144.58 25.0264 144.58 25.3997V29.8657H142.998ZM155.863 29.8657V22.2917H157.375V23.7757L157.193 23.5797C157.38 23.1037 157.679 22.7444 158.089 22.5017C158.5 22.2497 158.976 22.1237 159.517 22.1237C160.077 22.1237 160.572 22.2451 161.001 22.4877C161.431 22.7304 161.767 23.0664 162.009 23.4957C162.252 23.9251 162.373 24.4197 162.373 24.9797V29.8657H160.805V25.3997C160.805 25.0171 160.735 24.6951 160.595 24.4337C160.455 24.1631 160.255 23.9577 159.993 23.8177C159.741 23.6684 159.452 23.5937 159.125 23.5937C158.799 23.5937 158.505 23.6684 158.243 23.8177C157.991 23.9577 157.795 24.1631 157.655 24.4337C157.515 24.7044 157.445 25.0264 157.445 25.3997V29.8657H155.863Z" fill="black"/>
</g>
<defs>
<filter id="filter0_d_2162_16923" x="0.983148" y="0.913449" width="182.54" height="48.0772" filterUnits="userSpaceOnUse" color-interpolation-filters="sRGB">
<feFlood flood-opacity="0" result="BackgroundImageFix"/>
<feColorMatrix in="SourceAlpha" type="matrix" values="0 0 0 0 0 0 0 0 0 0 0 0 0 0 0 0 0 0 127 0" result="hardAlpha"/>
<feOffset dy="1.08655"/>
<feGaussianBlur stdDeviation="1.08655"/>
<feColorMatrix type="matrix" values="0 0 0 0 0.0627451 0 0 0 0 0.0941176 0 0 0 0 0.156863 0 0 0 0.05 0"/>
<feBlend mode="normal" in2="BackgroundImageFix" result="effect1_dropShadow_2162_16923"/>
<feBlend mode="normal" in="SourceGraphic" in2="effect1_dropShadow_2162_16923" result="shape"/>
</filter>
</defs>
</svg>
