<svg width="159" height="49" viewBox="0 0 159 49" fill="none" xmlns="http://www.w3.org/2000/svg">
<g filter="url(#filter0_d_2162_16923)">
<rect x="3.15625" y="2" width="153.193" height="43.731" rx="8.69241" fill="#E5F8F3"/>
<rect x="3.69953" y="2.54328" width="152.107" height="42.6445" rx="8.14913" stroke="#E5F8F3" stroke-width="1.08655"/>
<path d="M31.4066 17.5273V30.2038M25.0684 23.8656H37.7448" stroke="black" stroke-width="1.81454" stroke-linecap="round" stroke-linejoin="round"/>
<path d="M51.1188 29.8657L54.7868 19.4357H56.8308L60.4988 29.8657H58.7348L57.9368 27.5277H53.6948L52.8828 29.8657H51.1188ZM54.1708 26.0577H57.4328L55.5848 20.5977H56.0468L54.1708 26.0577ZM64.8088 30.0337C64.0808 30.0337 63.4274 29.8611 62.8488 29.5157C62.2794 29.1611 61.8268 28.6851 61.4908 28.0877C61.1641 27.4904 61.0008 26.8184 61.0008 26.0717C61.0008 25.3251 61.1688 24.6531 61.5048 24.0557C61.8408 23.4584 62.2934 22.9871 62.8628 22.6417C63.4321 22.2964 64.0761 22.1237 64.7948 22.1237C65.4014 22.1237 65.9381 22.2451 66.4048 22.4877C66.8714 22.7304 67.2401 23.0664 67.5108 23.4957L67.2728 23.8597V19.2677H68.8408V29.8657H67.3428V28.3257L67.5248 28.6197C67.2634 29.0771 66.8901 29.4271 66.4048 29.6697C65.9194 29.9124 65.3874 30.0337 64.8088 30.0337ZM64.9628 28.5637C65.4014 28.5637 65.7934 28.4564 66.1388 28.2417C66.4934 28.0271 66.7688 27.7331 66.9648 27.3597C67.1701 26.9771 67.2728 26.5477 67.2728 26.0717C67.2728 25.5957 67.1701 25.1711 66.9648 24.7977C66.7688 24.4244 66.4934 24.1304 66.1388 23.9157C65.7934 23.7011 65.4014 23.5937 64.9628 23.5937C64.5241 23.5937 64.1274 23.7011 63.7728 23.9157C63.4181 24.1304 63.1428 24.4244 62.9468 24.7977C62.7508 25.1711 62.6528 25.5957 62.6528 26.0717C62.6528 26.5477 62.7508 26.9771 62.9468 27.3597C63.1428 27.7331 63.4134 28.0271 63.7588 28.2417C64.1134 28.4564 64.5148 28.5637 64.9628 28.5637ZM74.1877 30.0337C73.4597 30.0337 72.8063 29.8611 72.2277 29.5157C71.6583 29.1611 71.2057 28.6851 70.8697 28.0877C70.543 27.4904 70.3797 26.8184 70.3797 26.0717C70.3797 25.3251 70.5477 24.6531 70.8837 24.0557C71.2197 23.4584 71.6723 22.9871 72.2417 22.6417C72.811 22.2964 73.455 22.1237 74.1737 22.1237C74.7803 22.1237 75.317 22.2451 75.7837 22.4877C76.2503 22.7304 76.619 23.0664 76.8897 23.4957L76.6517 23.8597V19.2677H78.2197V29.8657H76.7217V28.3257L76.9037 28.6197C76.6423 29.0771 76.269 29.4271 75.7837 29.6697C75.2983 29.9124 74.7663 30.0337 74.1877 30.0337ZM74.3417 28.5637C74.7803 28.5637 75.1723 28.4564 75.5177 28.2417C75.8723 28.0271 76.1477 27.7331 76.3437 27.3597C76.549 26.9771 76.6517 26.5477 76.6517 26.0717C76.6517 25.5957 76.549 25.1711 76.3437 24.7977C76.1477 24.4244 75.8723 24.1304 75.5177 23.9157C75.1723 23.7011 74.7803 23.5937 74.3417 23.5937C73.903 23.5937 73.5063 23.7011 73.1517 23.9157C72.797 24.1304 72.5217 24.4244 72.3257 24.7977C72.1297 25.1711 72.0317 25.5957 72.0317 26.0717C72.0317 26.5477 72.1297 26.9771 72.3257 27.3597C72.5217 27.7331 72.7923 28.0271 73.1377 28.2417C73.4923 28.4564 73.8937 28.5637 74.3417 28.5637ZM82.5138 29.8657V22.2917H84.0258V23.7757L83.8438 23.5797C84.0305 23.1037 84.3292 22.7444 84.7398 22.5017C85.1505 22.2497 85.6265 22.1237 86.1678 22.1237C86.7278 22.1237 87.2225 22.2451 87.6518 22.4877C88.0812 22.7304 88.4172 23.0664 88.6598 23.4957C88.9025 23.9251 89.0238 24.4197 89.0238 24.9797V29.8657H87.4558V25.3997C87.4558 25.0171 87.3858 24.6951 87.2458 24.4337C87.1058 24.1631 86.9052 23.9577 86.6438 23.8177C86.3918 23.6684 86.1025 23.5937 85.7758 23.5937C85.4492 23.5937 85.1552 23.6684 84.8938 23.8177C84.6418 23.9577 84.4458 24.1631 84.3058 24.4337C84.1658 24.7044 84.0958 25.0264 84.0958 25.3997V29.8657H82.5138ZM94.273 30.0337C93.517 30.0337 92.845 29.8611 92.257 29.5157C91.6783 29.1611 91.2256 28.6851 90.899 28.0877C90.5723 27.4811 90.409 26.8044 90.409 26.0577C90.409 25.2924 90.5723 24.6157 90.899 24.0277C91.235 23.4397 91.683 22.9777 92.243 22.6417C92.803 22.2964 93.4376 22.1237 94.147 22.1237C94.7163 22.1237 95.225 22.2217 95.673 22.4177C96.121 22.6137 96.499 22.8844 96.807 23.2297C97.115 23.5657 97.3483 23.9531 97.507 24.3917C97.675 24.8304 97.759 25.2971 97.759 25.7917C97.759 25.9131 97.7543 26.0391 97.745 26.1697C97.7356 26.3004 97.717 26.4217 97.689 26.5337H91.655V25.2737H96.793L96.037 25.8477C96.1303 25.3904 96.0976 24.9844 95.939 24.6297C95.7896 24.2657 95.5563 23.9811 95.239 23.7757C94.931 23.5611 94.567 23.4537 94.147 23.4537C93.727 23.4537 93.3536 23.5611 93.027 23.7757C92.7003 23.9811 92.4483 24.2797 92.271 24.6717C92.0936 25.0544 92.0236 25.5211 92.061 26.0717C92.0143 26.5851 92.0843 27.0331 92.271 27.4157C92.467 27.7984 92.7376 28.0971 93.083 28.3117C93.4376 28.5264 93.839 28.6337 94.287 28.6337C94.7443 28.6337 95.1316 28.5311 95.449 28.3257C95.7756 28.1204 96.0323 27.8544 96.219 27.5277L97.507 28.1577C97.3576 28.5124 97.1243 28.8344 96.807 29.1237C96.499 29.4037 96.1256 29.6277 95.687 29.7957C95.2576 29.9544 94.7863 30.0337 94.273 30.0337ZM101.137 29.8657L98.5329 22.2917H100.213L102.201 28.3257H101.613L103.643 22.2917H105.085L107.101 28.3257H106.513L108.515 22.2917H110.195L107.577 29.8657H106.149L104.105 23.6917H104.623L102.579 29.8657H101.137ZM113.727 29.8657V22.2917H115.239V23.8177L115.099 23.5937C115.267 23.0991 115.537 22.7444 115.911 22.5297C116.284 22.3057 116.732 22.1937 117.255 22.1937H117.717V23.6357H117.059C116.536 23.6357 116.111 23.7991 115.785 24.1257C115.467 24.4431 115.309 24.9004 115.309 25.4977V29.8657H113.727ZM122.453 30.0337C121.725 30.0337 121.058 29.8611 120.451 29.5157C119.854 29.1704 119.378 28.6991 119.023 28.1017C118.668 27.5044 118.491 26.8277 118.491 26.0717C118.491 25.3064 118.668 24.6297 119.023 24.0417C119.378 23.4444 119.854 22.9777 120.451 22.6417C121.048 22.2964 121.716 22.1237 122.453 22.1237C123.2 22.1237 123.867 22.2964 124.455 22.6417C125.052 22.9777 125.524 23.4444 125.869 24.0417C126.224 24.6297 126.401 25.3064 126.401 26.0717C126.401 26.8371 126.224 27.5184 125.869 28.1157C125.514 28.7131 125.038 29.1844 124.441 29.5297C123.844 29.8657 123.181 30.0337 122.453 30.0337ZM122.453 28.5637C122.901 28.5637 123.298 28.4564 123.643 28.2417C123.988 28.0271 124.259 27.7331 124.455 27.3597C124.66 26.9771 124.763 26.5477 124.763 26.0717C124.763 25.5957 124.66 25.1711 124.455 24.7977C124.259 24.4244 123.988 24.1304 123.643 23.9157C123.298 23.7011 122.901 23.5937 122.453 23.5937C122.014 23.5937 121.618 23.7011 121.263 23.9157C120.918 24.1304 120.642 24.4244 120.437 24.7977C120.241 25.1711 120.143 25.5957 120.143 26.0717C120.143 26.5477 120.241 26.9771 120.437 27.3597C120.642 27.7331 120.918 28.0271 121.263 28.2417C121.618 28.4564 122.014 28.5637 122.453 28.5637ZM129.643 29.8657L127.039 22.2917H128.719L130.707 28.3257H130.119L132.149 22.2917H133.591L135.607 28.3257H135.019L137.021 22.2917H138.701L136.083 29.8657H134.655L132.611 23.6917H133.129L131.085 29.8657H129.643Z" fill="black"/>
</g>
<defs>
<filter id="filter0_d_2162_16923" x="0.983148" y="0.913449" width="157.54" height="48.0772" filterUnits="userSpaceOnUse" color-interpolation-filters="sRGB">
<feFlood flood-opacity="0" result="BackgroundImageFix"/>
<feColorMatrix in="SourceAlpha" type="matrix" values="0 0 0 0 0 0 0 0 0 0 0 0 0 0 0 0 0 0 127 0" result="hardAlpha"/>
<feOffset dy="1.08655"/>
<feGaussianBlur stdDeviation="1.08655"/>
<feColorMatrix type="matrix" values="0 0 0 0 0.0627451 0 0 0 0 0.0941176 0 0 0 0 0.156863 0 0 0 0.05 0"/>
<feBlend mode="normal" in2="BackgroundImageFix" result="effect1_dropShadow_2162_16923"/>
<feBlend mode="normal" in="SourceGraphic" in2="effect1_dropShadow_2162_16923" result="shape"/>
</filter>
</defs>
</svg>
