<svg width="32" height="32" viewBox="0 0 32 32" fill="none" xmlns="http://www.w3.org/2000/svg">
<path fill-rule="evenodd" clip-rule="evenodd" d="M3.26875 28.7313H30.3625C31.2625 28.7313 32.0062 29.4625 32.0062 30.3625C32.0062 31.2625 31.2687 32 30.3687 32H1.6375C0.7375 32 0 31.2625 0 30.3687V1.6375C0 0.7375 0.7375 0 1.6375 0C2.53125 0 3.26875 0.7375 3.26875 1.6375V28.7313ZM18.7481 14.6148C19.3724 14.9871 20.1163 15.4308 20.7937 15.1812C21.2562 15.0687 21.6437 14.75 21.8687 14.3438L25.075 8.55625L23.6187 9.01875C21.6187 9.675 20.5937 6.48125 22.6437 5.875L27.9812 4.19375C28.8312 3.9375 29.7937 4.41875 30.05 5.26875L31.7312 10.575C32 11.4437 31.525 12.3688 30.6562 12.6438C29.8062 12.9125 28.8625 12.4375 28.5875 11.5688L28.075 9.93125L24.7562 15.925C23.4625 18.3625 20.125 19.2938 17.7687 17.85C16.775 17.1437 15.25 16.4375 14.3687 17.6875L9.08125 24.675C8.5375 25.3937 7.50625 25.5375 6.7875 24.9937C6.06875 24.45 5.925 23.4188 6.46875 22.7L11.7562 15.7125C13.2937 13.6625 16.1312 13.1 18.3437 14.3813C18.4709 14.4495 18.6064 14.5303 18.7481 14.6148Z" fill="#86CD57"/>
</svg>
