<svg width="18" height="22" viewBox="0 0 18 22" fill="none" xmlns="http://www.w3.org/2000/svg">
<path fill-rule="evenodd" clip-rule="evenodd" d="M3.54608 7.90994C3.54608 5.56716 5.08699 3.57886 7.20894 2.90489C7.95037 2.69731 8.74904 2.63864 9.59314 2.74415L9.59591 2.74449C9.84225 2.77435 10.0857 2.82409 10.3272 2.88939C12.4731 3.54925 14.0461 5.55609 14.0461 7.90994V10.7999C14.0461 11.1951 14.1275 11.6506 14.2403 12.0621C14.3534 12.4743 14.5143 12.9018 14.7064 13.2347L14.7063 13.2348L14.7136 13.2468L15.863 15.1558L15.8633 15.1564C16.277 15.8467 15.9414 16.7397 15.1907 16.9878L15.1884 16.9886C11.0332 18.3769 6.55054 18.3771 2.3952 16.9891C1.93843 16.8341 1.67559 16.5489 1.56567 16.252C1.45598 15.9558 1.46976 15.5705 1.71861 15.1568L1.71872 15.1566L2.86861 13.2468L2.86862 13.2468L2.87029 13.244C3.07059 12.908 3.23529 12.4776 3.35001 12.0643C3.46466 11.6513 3.54608 11.1953 3.54608 10.7999V7.90994ZM15.5461 7.90994C15.5461 5.03828 13.7314 2.57217 11.1915 1.60108C10.7246 0.757766 9.82587 0.189941 8.79616 0.189941C7.7679 0.189941 6.87028 0.756173 6.40279 1.59753C3.85773 2.56467 2.04608 5.02822 2.04608 7.90994V10.7999C2.04608 11.0146 1.99751 11.3286 1.90466 11.6631C1.81209 11.9966 1.69214 12.2905 1.58264 12.4746L1.58187 12.4759L0.43356 14.3831L0.433446 14.3833C-0.0275911 15.1495 -0.123793 16.0091 0.159003 16.7729C0.441472 17.5357 1.07323 18.1252 1.91564 18.4104L1.91842 18.4113C3.00703 18.775 4.11661 19.05 5.23693 19.2364C5.42389 19.7986 5.73965 20.3041 6.14581 20.7103C6.82028 21.3847 7.76866 21.8099 8.79614 21.8099C10.4505 21.8099 11.8619 20.7271 12.357 19.2344C13.473 19.0482 14.5782 18.7739 15.6626 18.4117C17.3309 17.8594 18.0548 15.8933 17.1492 14.3841L17.1486 14.3831L16.0026 12.4797C15.8955 12.2923 15.7779 11.9973 15.6869 11.6653C15.5947 11.3293 15.5461 11.0148 15.5461 10.7999V7.90994ZM10.5547 19.458C9.38388 19.5537 8.2073 19.5539 7.03642 19.4587C7.08956 19.5257 7.14636 19.5895 7.20647 19.6496C7.61199 20.0551 8.18362 20.3099 8.79614 20.3099C9.50519 20.3099 10.1413 19.9761 10.5547 19.458Z" fill="#161715"/>
</svg>
