<svg width="22" height="23" viewBox="0 0 22 23" fill="none" xmlns="http://www.w3.org/2000/svg">
<path fill-rule="evenodd" clip-rule="evenodd" d="M15.6448 1.14462C13.9585 0.651046 12.4624 0.546314 11.3904 1.31785C10.2996 2.10286 10.0593 3.49269 10.0593 4.84002V7.73661C10.0593 9.07097 10.3279 10.2317 11.0706 11.0561C11.8347 11.9042 12.9156 12.1964 14.0766 12.1964H17.4157C18.763 12.1964 20.1528 11.9561 20.9379 10.8653C21.7094 9.7933 21.6047 8.29726 21.1111 6.61088L21.1107 6.60961C20.361 4.0607 18.195 1.89467 15.6461 1.14499L15.6448 1.14462ZM12.0593 4.84002C12.0593 3.57239 12.3218 3.11161 12.5587 2.94115C12.8142 2.75724 13.4704 2.59218 15.0824 3.06392C16.9785 3.62185 18.6339 5.27722 19.1918 7.17328C19.6635 8.78535 19.4985 9.4415 19.3146 9.69704C19.1441 9.93389 18.6833 10.1964 17.4157 10.1964H14.0766C13.226 10.1964 12.7983 9.98579 12.5566 9.71745C12.2935 9.42548 12.0593 8.85631 12.0593 7.73661V4.84002ZM8.50335 4.14026C9.0445 4.02991 9.39374 3.50178 9.2834 2.96063C9.17305 2.41948 8.64491 2.07024 8.10376 2.18058C2.95927 3.22957 -0.767551 8.1837 0.135151 13.7894L0.135549 13.7918C0.828321 18.0267 4.22765 21.4277 8.46512 22.1104C14.0945 23.0244 19.0485 19.2733 20.0858 14.1089C20.1946 13.5675 19.8438 13.0403 19.3023 12.9316C18.7609 12.8228 18.2338 13.1736 18.125 13.7151C17.2916 17.864 13.3145 20.8716 8.78568 20.1362L8.7843 20.136C5.39916 19.5912 2.66427 16.858 2.10951 13.4702C1.38363 8.95839 4.37511 4.98202 8.50335 4.14026Z" fill="white"/>
</svg>
