<svg width="23" height="22" viewBox="0 0 23 22" fill="none" xmlns="http://www.w3.org/2000/svg">
<path fill-rule="evenodd" clip-rule="evenodd" d="M3.3233 3.0003C2.51356 3.81004 2.04297 5.08558 2.04297 6.96997V11.97C2.04297 14.4053 2.53664 15.6241 3.28685 16.2805C4.06183 16.9587 5.30623 17.22 7.29297 17.22H7.79297C8.07578 17.22 8.35093 17.3082 8.56733 17.4155C8.781 17.5214 9.02267 17.6882 9.19561 17.9235L10.693 19.92C10.9021 20.1989 11.1267 20.28 11.293 20.28C11.4593 20.28 11.6838 20.1989 11.893 19.92L13.393 17.92L13.3958 17.9162C13.7255 17.4824 14.245 17.22 14.793 17.22H15.293C17.1774 17.22 18.4529 16.7494 19.2626 15.9396C20.0724 15.1299 20.543 13.8544 20.543 11.97V6.96997C20.543 5.08558 20.0724 3.81004 19.2626 3.0003C18.4529 2.19056 17.1774 1.71997 15.293 1.71997H7.29297C5.40858 1.71997 4.13304 2.19056 3.3233 3.0003ZM2.26264 1.93964C3.4529 0.749381 5.17736 0.219971 7.29297 0.219971H15.293C17.4086 0.219971 19.133 0.749381 20.3233 1.93964C21.5136 3.1299 22.043 4.85436 22.043 6.96997V11.97C22.043 14.0856 21.5136 15.81 20.3233 17.0003C19.133 18.1906 17.4086 18.72 15.293 18.72H14.793C14.7214 18.72 14.6415 18.757 14.5911 18.8224L14.5901 18.8238L13.093 20.82C12.6421 21.4211 11.9967 21.78 11.293 21.78C10.5893 21.78 9.94381 21.4211 9.49297 20.82L7.99297 18.82L7.99173 18.8183C7.98951 18.8162 7.985 18.8121 7.97767 18.8064C7.95959 18.7923 7.93334 18.7754 7.90111 18.7594C7.86895 18.7435 7.83829 18.7322 7.81369 18.7256C7.79921 18.7216 7.79062 18.7203 7.78791 18.72H7.29297C5.27971 18.72 3.52411 18.4813 2.29909 17.4094C1.0493 16.3158 0.542969 14.5346 0.542969 11.97V6.96997C0.542969 4.85436 1.07238 3.1299 2.26264 1.93964ZM5.54297 6.96997C5.54297 6.55576 5.87876 6.21997 6.29297 6.21997H16.293C16.7072 6.21997 17.043 6.55576 17.043 6.96997C17.043 7.38418 16.7072 7.71997 16.293 7.71997H6.29297C5.87876 7.71997 5.54297 7.38418 5.54297 6.96997ZM6.29297 11.22C5.87876 11.22 5.54297 11.5558 5.54297 11.97C5.54297 12.3842 5.87876 12.72 6.29297 12.72H12.293C12.7072 12.72 13.043 12.3842 13.043 11.97C13.043 11.5558 12.7072 11.22 12.293 11.22H6.29297Z" fill="#161715"/>
</svg>
