<svg width="33" height="33" viewBox="0 0 33 33" fill="none" xmlns="http://www.w3.org/2000/svg">
<path fill-rule="evenodd" clip-rule="evenodd" d="M20.3718 2.6219C20.8809 2.19762 20.9497 1.44094 20.5255 0.931809C20.1012 0.422677 19.3445 0.353888 18.8354 0.778165L14.4844 4.40398C14.2108 4.63197 14.0526 4.96971 14.0526 5.32585C14.0526 5.68198 14.2108 6.01972 14.4844 6.24771L18.8354 9.87353C19.3445 10.2978 20.1012 10.229 20.5255 9.71988C20.9497 9.21075 20.8809 8.45407 20.3718 8.0298L18.5671 6.52586H23.9548C24.8874 6.52586 25.6554 7.29389 25.6554 8.22651V20.9346C23.1665 21.483 21.3043 23.7018 21.3043 26.3556C21.3043 29.4213 23.7895 31.9066 26.8553 31.9066C29.921 31.9066 32.4062 29.4213 32.4062 26.3556C32.4062 23.702 30.5442 21.4832 28.0554 20.9347V8.22651C28.0554 5.96841 26.2129 4.12586 23.9548 4.12586H18.5671L20.3718 2.6219ZM26.8553 23.2046C25.115 23.2046 23.7043 24.6154 23.7043 26.3556C23.7043 28.0958 25.115 29.5066 26.8553 29.5066C28.5955 29.5066 30.0062 28.0958 30.0062 26.3556C30.0062 24.6154 28.5955 23.2046 26.8553 23.2046ZM6.56115 9.20197C6.55773 9.20194 6.5543 9.20193 6.55087 9.20193C6.54728 9.20193 6.54369 9.20194 6.54011 9.20197C4.80487 9.19611 3.4 7.78762 3.4 6.05101C3.4 4.31077 4.81074 2.90003 6.55098 2.90003C8.29122 2.90003 9.70196 4.31077 9.70196 6.05101C9.70196 7.78786 8.29671 9.19649 6.56115 9.20197ZM7.75087 11.472C10.2398 10.9235 12.102 8.70474 12.102 6.05101C12.102 2.98529 9.6167 0.50003 6.55098 0.50003C3.48526 0.50003 1 2.98529 1 6.05101C1 8.70467 2.86207 10.9234 5.35087 11.4719V24.18C5.35087 26.4381 7.19342 28.2807 9.45152 28.2807H14.839L13.0343 29.7846C12.5252 30.2089 12.4564 30.9656 12.8807 31.4747C13.3049 31.9838 14.0616 32.0526 14.5708 31.6283L18.9217 28.0025C19.1953 27.7745 19.3535 27.4368 19.3535 27.0807C19.3535 26.7245 19.1953 26.3868 18.9217 26.1588L14.5708 22.533C14.0616 22.1087 13.3049 22.1775 12.8807 22.6866C12.4564 23.1958 12.5252 23.9524 13.0343 24.3767L14.8391 25.8807H9.45152C8.51891 25.8807 7.75087 25.1126 7.75087 24.18V11.472Z" fill="#86CD57"/>
<path d="M20.5255 0.931809L20.1413 1.2519L20.5255 0.931809ZM20.3718 2.6219L20.6919 3.00601L20.6919 3.00601L20.3718 2.6219ZM18.8354 0.778165L18.5153 0.394054V0.394054L18.8354 0.778165ZM14.4844 4.40398L14.8045 4.78809L14.4844 4.40398ZM14.4844 6.24771L14.8045 5.8636L14.4844 6.24771ZM18.8354 9.87353L19.1555 9.48942L18.8354 9.87353ZM20.3718 8.0298L20.6919 7.64569L20.6919 7.64568L20.3718 8.0298ZM18.5671 6.52586V6.02586C18.3566 6.02586 18.1686 6.15771 18.097 6.35565C18.0253 6.55358 18.0853 6.7752 18.247 6.90997L18.5671 6.52586ZM25.6554 20.9346L25.763 21.4229C25.9922 21.3724 26.1554 21.1693 26.1554 20.9346H25.6554ZM28.0554 20.9347H27.5554C27.5554 21.1694 27.7186 21.3725 27.9478 21.423L28.0554 20.9347ZM18.5671 4.12586L18.247 3.74175C18.0853 3.87651 18.0253 4.09813 18.0969 4.29607C18.1686 4.49401 18.3566 4.62586 18.5671 4.62586V4.12586ZM6.56115 9.20197L6.55697 9.70199L6.56273 9.70197L6.56115 9.20197ZM6.54011 9.20197L6.53842 9.70201L6.5445 9.70196L6.54011 9.20197ZM7.75087 11.472L7.64328 10.9837C7.41409 11.0342 7.25087 11.2373 7.25087 11.472H7.75087ZM5.35087 11.4719H5.85087C5.85087 11.2372 5.68766 11.0341 5.45848 10.9836L5.35087 11.4719ZM14.839 28.2807L15.1591 28.6648C15.3208 28.53 15.3808 28.3084 15.3092 28.1105C15.2375 27.9125 15.0495 27.7807 14.839 27.7807V28.2807ZM13.0343 29.7846L12.7142 29.4005L12.7142 29.4005L13.0343 29.7846ZM14.5708 31.6283L14.2507 31.2442L14.2507 31.2442L14.5708 31.6283ZM18.9217 28.0025L18.6016 27.6184H18.6016L18.9217 28.0025ZM18.9217 26.1588L19.2418 25.7747L19.2418 25.7747L18.9217 26.1588ZM14.5708 22.533L14.2507 22.9171L14.5708 22.533ZM13.0343 24.3767L13.3544 23.9926L13.0343 24.3767ZM14.8391 25.8807V26.3807C15.0496 26.3807 15.2375 26.2488 15.3092 26.0509C15.3809 25.853 15.3209 25.6313 15.1592 25.4966L14.8391 25.8807ZM20.1413 1.2519C20.3888 1.5489 20.3487 1.99029 20.0517 2.23779L20.6919 3.00601C21.4132 2.40495 21.5106 1.33299 20.9096 0.611717L20.1413 1.2519ZM19.1555 1.16228C19.4525 0.91478 19.8939 0.954907 20.1413 1.2519L20.9096 0.611717C20.3085 -0.109554 19.2366 -0.207005 18.5153 0.394054L19.1555 1.16228ZM14.8045 4.78809L19.1555 1.16228L18.5153 0.394054L14.1643 4.01987L14.8045 4.78809ZM14.5526 5.32585C14.5526 5.1181 14.6449 4.92109 14.8045 4.78809L14.1643 4.01987C13.7767 4.34286 13.5526 4.82132 13.5526 5.32585H14.5526ZM14.8045 5.8636C14.6449 5.7306 14.5526 5.53359 14.5526 5.32585H13.5526C13.5526 5.83037 13.7767 6.30883 14.1643 6.63182L14.8045 5.8636ZM19.1555 9.48942L14.8045 5.8636L14.1643 6.63182L18.5153 10.2576L19.1555 9.48942ZM20.1413 9.39979C19.8939 9.69678 19.4525 9.73691 19.1555 9.48942L18.5153 10.2576C19.2366 10.8587 20.3085 10.7612 20.9096 10.04L20.1413 9.39979ZM20.0517 8.41391C20.3487 8.6614 20.3888 9.1028 20.1413 9.39979L20.9096 10.04C21.5106 9.3187 21.4132 8.24675 20.6919 7.64569L20.0517 8.41391ZM18.247 6.90997L20.0517 8.41391L20.6919 7.64568L18.8872 6.14175L18.247 6.90997ZM23.9548 6.02586H18.5671V7.02586H23.9548V6.02586ZM26.1554 8.22651C26.1554 7.01775 25.1635 6.02586 23.9548 6.02586V7.02586C24.6112 7.02586 25.1554 7.57004 25.1554 8.22651H26.1554ZM26.1554 20.9346V8.22651H25.1554V20.9346H26.1554ZM21.8043 26.3556C21.8043 23.9415 23.4984 21.9219 25.763 21.4229L25.5478 20.4463C22.8346 21.0442 20.8043 23.4622 20.8043 26.3556H21.8043ZM26.8553 31.4066C24.0657 31.4066 21.8043 29.1452 21.8043 26.3556H20.8043C20.8043 29.6975 23.5134 32.4066 26.8553 32.4066V31.4066ZM31.9062 26.3556C31.9062 29.1452 29.6448 31.4066 26.8553 31.4066V32.4066C30.1971 32.4066 32.9062 29.6975 32.9062 26.3556H31.9062ZM27.9478 21.423C30.2123 21.9221 31.9062 23.9416 31.9062 26.3556H32.9062C32.9062 23.4623 30.8761 21.0444 28.163 20.4464L27.9478 21.423ZM27.5554 8.22651V20.9347H28.5554V8.22651H27.5554ZM23.9548 4.62586C25.9367 4.62586 27.5554 6.24455 27.5554 8.22651H28.5554C28.5554 5.69227 26.489 3.62586 23.9548 3.62586V4.62586ZM18.5671 4.62586H23.9548V3.62586H18.5671V4.62586ZM20.0517 2.23779L18.247 3.74175L18.8872 4.50997L20.6919 3.00601L20.0517 2.23779ZM24.2043 26.3556C24.2043 24.8915 25.3912 23.7046 26.8553 23.7046V22.7046C24.8389 22.7046 23.2043 24.3392 23.2043 26.3556H24.2043ZM26.8553 29.0066C25.3912 29.0066 24.2043 27.8197 24.2043 26.3556H23.2043C23.2043 28.372 24.8389 30.0066 26.8553 30.0066V29.0066ZM29.5062 26.3556C29.5062 27.8197 28.3193 29.0066 26.8553 29.0066V30.0066C28.8716 30.0066 30.5062 28.372 30.5062 26.3556H29.5062ZM26.8553 23.7046C28.3193 23.7046 29.5062 24.8915 29.5062 26.3556H30.5062C30.5062 24.3392 28.8716 22.7046 26.8553 22.7046V23.7046ZM6.55087 9.70193C6.55291 9.70193 6.55494 9.70194 6.55697 9.70195L6.56533 8.70199C6.56051 8.70195 6.55569 8.70193 6.55087 8.70193V9.70193ZM6.5445 9.70196C6.54666 9.70194 6.54879 9.70193 6.55087 9.70193V8.70193C6.54578 8.70193 6.54072 8.70195 6.53572 8.70199L6.5445 9.70196ZM2.9 6.05101C2.9 8.0632 4.52779 9.69518 6.53842 9.70197L6.5418 8.70198C5.08195 8.69705 3.9 7.51205 3.9 6.05101H2.9ZM6.55098 2.40003C4.5346 2.40003 2.9 4.03463 2.9 6.05101H3.9C3.9 4.58691 5.08688 3.40003 6.55098 3.40003V2.40003ZM10.202 6.05101C10.202 4.03463 8.56736 2.40003 6.55098 2.40003V3.40003C8.01507 3.40003 9.20196 4.58691 9.20196 6.05101H10.202ZM6.56273 9.70197C8.57372 9.69561 10.202 8.06347 10.202 6.05101H9.20196C9.20196 7.51224 8.01969 8.69736 6.55957 8.70197L6.56273 9.70197ZM11.602 6.05101C11.602 8.46509 9.90789 10.4847 7.64328 10.9837L7.85847 11.9602C10.5717 11.3624 12.602 8.94439 12.602 6.05101H11.602ZM6.55098 1.00003C9.34056 1.00003 11.602 3.26143 11.602 6.05101H12.602C12.602 2.70915 9.89284 3.016e-05 6.55098 3.016e-05V1.00003ZM1.5 6.05101C1.5 3.26143 3.7614 1.00003 6.55098 1.00003V3.016e-05C3.20912 3.016e-05 0.5 2.70915 0.5 6.05101H1.5ZM5.45848 10.9836C3.19397 10.4846 1.5 8.46502 1.5 6.05101H0.5C0.5 8.94431 2.53017 11.3623 5.24326 11.9602L5.45848 10.9836ZM5.85087 24.18V11.4719H4.85087V24.18H5.85087ZM9.45152 27.7807C7.46957 27.7807 5.85087 26.162 5.85087 24.18H4.85087C4.85087 26.7143 6.91728 28.7807 9.45152 28.7807V27.7807ZM14.839 27.7807H9.45152V28.7807H14.839V27.7807ZM13.3544 30.1687L15.1591 28.6648L14.5189 27.8966L12.7142 29.4005L13.3544 30.1687ZM13.2648 31.1546C13.0173 30.8576 13.0574 30.4162 13.3544 30.1687L12.7142 29.4005C11.9929 30.0016 11.8955 31.0735 12.4966 31.7948L13.2648 31.1546ZM14.2507 31.2442C13.9537 31.4917 13.5123 31.4516 13.2648 31.1546L12.4966 31.7948C13.0976 32.5161 14.1696 32.6135 14.8908 32.0125L14.2507 31.2442ZM18.6016 27.6184L14.2507 31.2442L14.8908 32.0125L19.2418 28.3866L18.6016 27.6184ZM18.8535 27.0807C18.8535 27.2884 18.7612 27.4854 18.6016 27.6184L19.2418 28.3866C19.6294 28.0637 19.8535 27.5852 19.8535 27.0807H18.8535ZM18.6016 26.5429C18.7612 26.6759 18.8535 26.8729 18.8535 27.0807H19.8535C19.8535 26.5761 19.6294 26.0977 19.2418 25.7747L18.6016 26.5429ZM14.2507 22.9171L18.6016 26.5429L19.2418 25.7747L14.8908 22.1489L14.2507 22.9171ZM13.2648 23.0067C13.5123 22.7097 13.9537 22.6696 14.2507 22.9171L14.8908 22.1489C14.1696 21.5478 13.0976 21.6453 12.4966 22.3665L13.2648 23.0067ZM13.3544 23.9926C13.0574 23.7451 13.0173 23.3037 13.2648 23.0067L12.4966 22.3665C11.8955 23.0878 11.9929 24.1598 12.7142 24.7608L13.3544 23.9926ZM15.1592 25.4966L13.3544 23.9926L12.7142 24.7608L14.519 26.2648L15.1592 25.4966ZM9.45152 26.3807H14.8391V25.3807H9.45152V26.3807ZM7.25087 24.18C7.25087 25.3888 8.24277 26.3807 9.45152 26.3807V25.3807C8.79505 25.3807 8.25087 24.8365 8.25087 24.18H7.25087ZM7.25087 11.472V24.18H8.25087V11.472H7.25087Z" fill="#86CD57"/>
</svg>
