<svg width="22" height="23" viewBox="0 0 22 23" fill="none" xmlns="http://www.w3.org/2000/svg">
<path fill-rule="evenodd" clip-rule="evenodd" d="M6.26999 2.5022C5.6344 2.5022 5.10692 2.52223 4.6534 2.58328L4.63121 2.58602C3.37718 2.72636 2.85303 3.05902 2.55587 3.50929C2.19995 4.04857 2 4.99236 2 6.76221V13.0822C2 14.8521 2.19995 15.7958 2.55587 16.3351C2.85303 16.7854 3.37718 17.1181 4.63121 17.2584L4.6534 17.2611C5.10692 17.3222 5.6344 17.3422 6.26999 17.3422H15.74C16.3852 17.3422 16.9029 17.3222 17.3566 17.2611L17.3788 17.2584C18.6328 17.1181 19.157 16.7854 19.4541 16.3351C19.81 15.7958 20.01 14.8521 20.01 13.0822V6.76221C20.01 4.99237 19.81 4.04858 19.4541 3.50929C19.157 3.05902 18.6328 2.72636 17.3788 2.58602L17.3566 2.58328C16.9031 2.52223 16.3756 2.5022 15.74 2.5022H6.26999ZM4.39774 0.599668C4.98108 0.521961 5.60979 0.502197 6.26999 0.502197H15.74C16.4002 0.502197 17.0289 0.521961 17.6122 0.599667C19.1232 0.77038 20.3549 1.24325 21.1234 2.40764C21.835 3.48585 22.01 4.97205 22.01 6.76221V13.0822C22.01 14.8724 21.835 16.3586 21.1234 17.4368C20.3549 18.6012 19.1232 19.074 17.6122 19.2448C17.0292 19.3224 16.4105 19.3422 15.74 19.3422H6.26999C5.60979 19.3422 4.98108 19.3225 4.39774 19.2448C2.8868 19.074 1.65508 18.6012 0.886623 17.4368C0.17504 16.3586 0 14.8724 0 13.0822V6.76221C0 4.97205 0.17504 3.48585 0.886623 2.40764C1.65508 1.24325 2.8868 0.770382 4.39774 0.599668ZM11.59 7.8222C11.59 7.26992 12.0377 6.8222 12.59 6.8222H16.27C16.8222 6.8222 17.27 7.26992 17.27 7.8222C17.27 8.37449 16.8222 8.8222 16.27 8.8222H12.59C12.0377 8.8222 11.59 8.37449 11.59 7.8222ZM5.75 12.6122C5.19772 12.6122 4.75 13.0599 4.75 13.6122C4.75 14.1645 5.19772 14.6122 5.75 14.6122H5.76999H16.28C16.8323 14.6122 17.28 14.1645 17.28 13.6122C17.28 13.0599 16.8323 12.6122 16.28 12.6122H5.76999H5.75ZM5.01001 21.5022C5.01001 20.9499 5.45773 20.5022 6.01001 20.5022H16.01C16.5623 20.5022 17.01 20.9499 17.01 21.5022C17.01 22.0545 16.5623 22.5022 16.01 22.5022H6.01001C5.45773 22.5022 5.01001 22.0545 5.01001 21.5022ZM6.20471 6.80219C5.65243 6.80219 5.20471 7.2499 5.20471 7.80219C5.20471 8.35447 5.65243 8.80219 6.20471 8.80219H6.21369C6.76598 8.80219 7.21369 8.35447 7.21369 7.80219C7.21369 7.2499 6.76598 6.80219 6.21369 6.80219H6.20471Z" fill="white"/>
</svg>
