<svg width="20" height="21" viewBox="0 0 20 21" fill="none" xmlns="http://www.w3.org/2000/svg">
<path fill-rule="evenodd" clip-rule="evenodd" d="M10.5 2.75223H7.125C5.03613 2.75223 3.83406 3.17612 3.12898 3.88121C2.4239 4.58629 2 5.78836 2 7.87723V13.1272C2 15.2161 2.4239 16.4182 3.12898 17.1232C3.83406 17.8283 5.03613 18.2522 7.125 18.2522H12.375C14.4639 18.2522 15.6659 17.8283 16.371 17.1232C17.0761 16.4182 17.5 15.2161 17.5 13.1272V9.75223H15C13.6321 9.75223 12.402 9.53714 11.5585 8.69371C10.7151 7.85027 10.5 6.62012 10.5 5.25223V2.75223ZM19.2071 8.04512C19.225 8.06299 19.2421 8.08143 19.2584 8.10038C19.4056 8.27154 19.4881 8.48463 19.4988 8.70356M19.5 8.76026V13.1272C19.5 15.4134 19.0489 17.2738 17.7852 18.5375C16.5216 19.8011 14.6611 20.2522 12.375 20.2522H7.125C4.83887 20.2522 2.97843 19.8011 1.71477 18.5375C0.451101 17.2738 0 15.4134 0 13.1272V7.87723C0 5.5911 0.451101 3.73066 1.71477 2.46699C2.97843 1.20333 4.83887 0.752226 7.125 0.752226H11.4921C11.51 0.75209 11.5279 0.752433 11.5457 0.753253C11.7725 0.763459 11.9796 0.849184 12.1424 0.985872C12.1647 1.00455 12.1863 1.0243 12.2071 1.04512L15.7071 4.54512L19.2071 8.04512M12.5 5.25223V4.16644L14.2929 5.95933L16.0858 7.75223H15C13.7429 7.75223 13.223 7.52981 12.9727 7.27949C12.7224 7.02918 12.5 6.50933 12.5 5.25223ZM13.424 11.4195C13.7514 11.6732 13.811 12.1444 13.5573 12.4717L11.7111 14.8533L11.7067 14.859L11.7067 14.859C11.1801 15.525 10.2097 15.6462 9.5329 15.1232L9.52768 15.1191L9.52769 15.1191L8.06923 13.9715C8.04474 13.9534 8.01327 13.9586 7.9957 13.9811L7.99555 13.9813L6.09418 16.4499C5.84143 16.778 5.3705 16.8392 5.04235 16.5864C4.71419 16.3337 4.65306 15.8627 4.90582 15.5346L6.80791 13.0651L6.80863 13.0641C7.33426 12.3839 8.30897 12.261 8.98754 12.7854L8.99277 12.7894L8.99275 12.7895L10.4513 13.9371C10.4638 13.9464 10.4778 13.9501 10.4937 13.9481C10.5099 13.9461 10.5213 13.9391 10.5291 13.9298L12.3717 11.5527C12.6255 11.2254 13.0966 11.1657 13.424 11.4195Z" fill="white"/>
</svg>
