<svg width="22" height="23" viewBox="0 0 22 23" fill="none" xmlns="http://www.w3.org/2000/svg">
<path fill-rule="evenodd" clip-rule="evenodd" d="M10.5527 2.63935L10.5514 2.64007L4.04479 6.14823L4.04468 6.14829L4.04458 6.14835C4.03474 6.15369 4.02774 6.1598 4.01991 6.17412C4.00998 6.19229 4 6.22336 4 6.26313C4 6.30291 4.00998 6.33398 4.01991 6.35215C4.02774 6.36647 4.03474 6.37258 4.04458 6.37792L4.04468 6.37798L4.04479 6.37804L10.5514 9.8862L10.5528 9.88698C10.8375 10.0385 11.1625 10.0385 11.4472 9.88698L11.4486 9.8862L17.9552 6.37804C17.9652 6.37267 17.9722 6.36657 17.9801 6.35215C17.99 6.33398 18 6.30291 18 6.26313C18 6.22336 17.99 6.19229 17.9801 6.17412C17.9722 6.1597 17.9652 6.1536 17.9552 6.14823L11.4486 2.64007L11.4473 2.63935C11.1626 2.48773 10.8374 2.48773 10.5527 2.63935ZM9.60862 0.876203C10.4832 0.408779 11.5168 0.408779 12.3914 0.876203L12.3946 0.877918L18.9046 4.38792L18.9048 4.38804C20.3651 5.17582 20.3651 7.35045 18.9048 8.13823L18.9046 8.13835L12.3946 11.6483L12.3914 11.6501C11.5168 12.1175 10.4832 12.1175 9.60862 11.6501L9.60542 11.6483L3.09542 8.13835L3.09521 8.13823C1.63493 7.35045 1.63493 5.17582 3.09521 4.38804L3.09542 4.38792L9.60542 0.877924L9.60862 0.876203ZM2.16263 10.5224C2.07914 10.4808 2 10.541 2 10.6181V16.3381C2 16.7947 2.26213 17.2225 2.68023 17.4352L2.68196 17.4361L8.72721 20.4637L8.72746 20.4638C8.81092 20.5053 8.89 20.4452 8.89 20.3681V14.6481C8.89 14.1915 8.62788 13.7637 8.2098 13.551L2.16279 10.5225L2.16263 10.5224ZM0 10.6181C0 9.03529 1.66076 8.03544 3.05721 8.73367L3.0578 8.73396L9.1078 11.764L9.11196 11.7661C10.1929 12.3137 10.89 13.4254 10.89 14.6481V20.3681C10.89 21.9509 9.22924 22.9507 7.83279 22.2525L7.83219 22.2522L1.7822 19.2222L1.77804 19.2201C0.69714 18.6725 0 17.5608 0 16.3381V10.6181ZM22 10.6181C22 9.03529 20.3392 8.03545 18.9428 8.73367L18.9422 8.73396L12.8922 11.764L12.8922 11.764L12.888 11.7661C11.8071 12.3137 11.11 13.4254 11.11 14.6481V20.3681C11.11 21.9509 12.7708 22.9507 14.1672 22.2525L14.1678 22.2522L20.2178 19.2222L20.222 19.2201C21.3028 18.6725 22 17.5608 22 16.3381V10.6181ZM19.8372 10.5225L19.8373 10.5225C19.9208 10.4808 20 10.5409 20 10.6181V16.3381C20 16.7947 19.7379 17.2225 19.3198 17.4352L19.318 17.4361L13.2728 20.4637L13.2726 20.4638C13.1891 20.5053 13.11 20.4452 13.11 20.3681V14.6481C13.11 14.1915 13.3721 13.7637 13.7902 13.551L19.8372 10.5225Z" fill="white"/>
</svg>
