<svg width="696" height="611" viewBox="0 0 696 611" fill="none" xmlns="http://www.w3.org/2000/svg">
<rect width="696" height="611" fill="#FAFAFA"/>
<path fill-rule="evenodd" clip-rule="evenodd" d="M564.79 527.632C596.788 488.929 618.889 438.303 626.479 384.942C626.815 382.609 627.11 380.275 627.391 377.942C628.907 365.779 629.617 353.695 629.55 341.747L436.249 314.228C432.548 313.705 429.222 311.747 426.969 308.783C424.729 305.819 423.75 302.105 424.273 298.43C424.796 294.769 426.768 291.457 429.745 289.244C432.722 287.031 436.477 286.079 440.178 286.602L655.956 317.326C659.657 317.849 663.399 316.897 666.39 314.684C669.367 312.471 671.338 309.159 671.861 305.498C672.384 301.836 671.419 298.108 669.166 295.144C666.926 292.181 663.587 290.223 659.885 289.7L623.18 284.47C618.688 263.951 611.902 244.144 603.064 225.396C584.115 185.217 555.751 149.853 520.387 122.495C483.119 93.5016 438.046 73.5465 388.024 66.4254C387.863 66.3986 387.702 66.3852 387.541 66.3584C387.38 66.3316 387.22 66.3047 387.045 66.2913C306.259 54.785 228.585 78.5219 169.846 125.727L360.505 152.871C364.207 153.394 367.533 155.352 369.786 158.315C372.025 161.279 373.004 164.994 372.481 168.668C371.958 172.33 369.987 175.642 367.01 177.855C364.032 180.067 360.277 181.02 356.576 180.497L105.354 144.73C101.653 144.207 97.911 145.16 94.9205 147.372C91.9433 149.585 89.9719 152.897 89.4489 156.559C88.9259 160.22 89.8915 163.948 92.1445 166.912C94.384 169.875 97.7233 171.833 101.425 172.356L121.755 175.253C94.3036 211.583 75.4213 255.087 68.5685 303.231C67.4152 311.345 66.6239 319.458 66.1948 327.572L40.044 323.843C36.3426 323.32 32.6011 324.272 29.6105 326.485C26.6333 328.698 24.6619 332.01 24.1389 335.672C23.6159 339.333 24.5815 343.061 26.8345 346.025C29.0741 348.988 32.4133 350.946 36.1147 351.469L326.348 392.788C330.05 393.311 333.376 395.269 335.629 398.232C337.868 401.196 338.847 404.911 338.324 408.585C337.801 412.246 335.83 415.559 332.853 417.772C329.875 419.984 326.12 420.937 322.419 420.414L69.011 384.339C71.9614 403.61 76.9502 422.532 83.8701 440.784C95.0948 471.991 112.086 502.085 133.114 527.337L564.79 527.632Z" fill="#E8F3FC"/>
<mask id="mask0_372_1389" style="mask-type:luminance" maskUnits="userSpaceOnUse" x="24" y="63" width="648" height="465">
<path d="M564.79 527.632C596.788 488.929 618.889 438.303 626.479 384.942C626.815 382.609 627.11 380.275 627.391 377.942C628.907 365.779 629.617 353.695 629.55 341.747L436.249 314.228C432.548 313.705 429.222 311.747 426.969 308.783C424.729 305.819 423.75 302.105 424.273 298.43C424.796 294.769 426.768 291.457 429.745 289.244C432.722 287.031 436.477 286.079 440.178 286.602L655.956 317.326C659.657 317.849 663.399 316.897 666.39 314.684C669.367 312.471 671.338 309.159 671.861 305.498C672.384 301.836 671.419 298.108 669.166 295.144C666.926 292.181 663.587 290.223 659.885 289.7L623.18 284.47C618.688 263.951 611.902 244.144 603.064 225.396C584.115 185.217 555.751 149.853 520.387 122.495C483.119 93.5016 438.046 73.5465 388.024 66.4254C387.863 66.3986 387.702 66.3852 387.541 66.3584C387.38 66.3316 387.22 66.3047 387.045 66.2913C306.259 54.785 228.585 78.5219 169.846 125.727L360.505 152.871C364.207 153.394 367.533 155.352 369.786 158.315C372.025 161.279 373.004 164.994 372.481 168.668C371.958 172.33 369.987 175.642 367.01 177.855C364.032 180.067 360.277 181.02 356.576 180.497L105.354 144.73C101.653 144.207 97.911 145.16 94.9205 147.372C91.9433 149.585 89.9719 152.897 89.4489 156.559C88.9259 160.22 89.8915 163.948 92.1445 166.912C94.384 169.875 97.7233 171.833 101.425 172.356L121.755 175.253C94.3036 211.583 75.4213 255.087 68.5685 303.231C67.4152 311.345 66.6239 319.458 66.1948 327.572L40.044 323.843C36.3426 323.32 32.6011 324.272 29.6105 326.485C26.6333 328.698 24.6619 332.01 24.1389 335.672C23.6159 339.333 24.5815 343.061 26.8345 346.025C29.0741 348.988 32.4133 350.946 36.1147 351.469L326.348 392.788C330.05 393.311 333.376 395.269 335.629 398.232C337.868 401.196 338.847 404.911 338.324 408.585C337.801 412.246 335.83 415.559 332.853 417.772C329.875 419.984 326.12 420.937 322.419 420.414L69.011 384.339C71.9614 403.61 76.9502 422.532 83.8701 440.784C95.0948 471.991 112.086 502.085 133.114 527.337L564.79 527.632Z" fill="white"/>
</mask>
<g mask="url(#mask0_372_1389)">
<path fill-rule="evenodd" clip-rule="evenodd" d="M113.105 570.921L60.2136 571.243L59.4626 302.587L112.368 302.279L112.515 357.88L146.967 357.678L146.632 233.858L232.715 233.335L232.849 280.044L267.301 279.829L267.06 192.459L301.512 192.258L301.351 133.747L387.448 133.237L387.877 288.359L422.342 288.144L422.141 218.489L475.046 218.167L475.22 282.391L503.182 282.23L503.048 234.743L572.931 234.327L573.279 360.226L601.254 360.052L601.093 303.513L644.021 303.258L644.316 405.152L672.277 404.978L673.041 678.14L645.08 678.301L644.785 576.406L601.857 576.661L602.005 633.201L574.044 633.375L573.883 576.822L504.013 577.251L504.067 599.124L476.105 599.285L475.985 554.708L423.08 555.016L423.281 624.685L388.815 624.886L388.628 555.231L302.531 555.741L302.612 582.696L268.146 582.897L268.173 591.507L233.721 591.721L233.654 570.211L147.571 570.72L147.718 626.334L113.266 626.536L113.105 570.921Z" fill="#CEE5FB"/>
</g>
<path fill-rule="evenodd" clip-rule="evenodd" d="M483.468 289.458C487.974 289.458 492.306 291.148 495.497 294.179C498.689 297.196 500.486 301.3 500.486 305.565C500.486 341.666 500.486 428.728 500.486 464.83C500.486 469.094 498.689 473.198 495.497 476.216C492.306 479.233 487.974 480.936 483.468 480.936C431.193 480.936 273.309 480.936 221.034 480.936C216.515 480.936 212.197 479.246 209.005 476.216C205.813 473.198 204.016 469.094 204.016 464.83C204.016 428.728 204.016 341.666 204.016 305.565C204.016 301.3 205.813 297.196 209.005 294.179C212.197 291.162 216.529 289.458 221.034 289.458C273.309 289.458 431.193 289.458 483.468 289.458Z" fill="white"/>
<mask id="mask1_372_1389" style="mask-type:luminance" maskUnits="userSpaceOnUse" x="204" y="289" width="297" height="192">
<path d="M483.468 289.458C487.974 289.458 492.306 291.148 495.497 294.179C498.689 297.196 500.486 301.3 500.486 305.565C500.486 341.666 500.486 428.728 500.486 464.83C500.486 469.094 498.689 473.198 495.497 476.216C492.306 479.233 487.974 480.936 483.468 480.936C431.193 480.936 273.309 480.936 221.034 480.936C216.515 480.936 212.197 479.246 209.005 476.216C205.813 473.198 204.016 469.094 204.016 464.83C204.016 428.728 204.016 341.666 204.016 305.565C204.016 301.3 205.813 297.196 209.005 294.179C212.197 291.162 216.529 289.458 221.034 289.458C273.309 289.458 431.193 289.458 483.468 289.458Z" fill="white"/>
</mask>
<g mask="url(#mask1_372_1389)">
<path fill-rule="evenodd" clip-rule="evenodd" d="M213.337 253.974C212.385 284.255 214.852 299.959 218.406 408.505C220.739 479.769 248.526 471.964 341.275 471.481C456.888 470.891 498.944 471.481 498.944 471.481C487.947 509.755 299.849 527.055 226.774 499.523C145.117 468.759 177.061 265.118 181.889 258.359" fill="#DBDBDB"/>
</g>
<path d="M483.468 289.458C487.974 289.458 492.306 291.148 495.497 294.179C498.689 297.196 500.486 301.3 500.486 305.565C500.486 341.666 500.486 428.728 500.486 464.83C500.486 469.094 498.689 473.198 495.497 476.216C492.306 479.233 487.974 480.936 483.468 480.936C431.193 480.936 273.309 480.936 221.034 480.936C216.515 480.936 212.197 479.246 209.005 476.216C205.813 473.198 204.016 469.094 204.016 464.83C204.016 428.728 204.016 341.666 204.016 305.565C204.016 301.3 205.813 297.196 209.005 294.179C212.197 291.162 216.529 289.458 221.034 289.458C273.309 289.458 431.193 289.458 483.468 289.458Z" stroke="#4676A1" stroke-width="5" stroke-miterlimit="10" stroke-linecap="round" stroke-linejoin="round"/>
<path fill-rule="evenodd" clip-rule="evenodd" d="M204.016 440.382V305.551C204.016 301.286 205.813 297.183 209.005 294.165C212.197 291.148 216.529 289.445 221.034 289.445H483.468C487.974 289.445 492.306 291.135 495.497 294.165C498.689 297.183 500.486 301.286 500.486 305.551V440.382H204.016Z" fill="#666F89"/>
<mask id="mask2_372_1389" style="mask-type:luminance" maskUnits="userSpaceOnUse" x="204" y="289" width="297" height="152">
<path d="M204.016 440.382V305.551C204.016 301.286 205.813 297.183 209.005 294.165C212.197 291.148 216.529 289.445 221.034 289.445H483.468C487.974 289.445 492.306 291.135 495.497 294.165C498.689 297.183 500.486 301.286 500.486 305.551V440.382H204.016Z" fill="white"/>
</mask>
<g mask="url(#mask2_372_1389)">
<path fill-rule="evenodd" clip-rule="evenodd" d="M213.337 253.974C212.385 284.255 214.852 299.959 218.406 408.505C220.739 479.769 248.526 471.964 341.275 471.481C456.888 470.891 498.944 471.481 498.944 471.481C487.947 509.755 299.849 527.055 226.774 499.523C145.117 468.759 177.061 265.118 181.889 258.359" fill="#464E65"/>
</g>
<path d="M204.016 440.382V305.551C204.016 301.286 205.813 297.183 209.005 294.165C212.197 291.148 216.529 289.445 221.034 289.445H483.468C487.974 289.445 492.306 291.135 495.497 294.165C498.689 297.183 500.486 301.286 500.486 305.551V440.382H204.016Z" stroke="#4676A1" stroke-width="5" stroke-miterlimit="10" stroke-linecap="round" stroke-linejoin="round"/>
<path fill-rule="evenodd" clip-rule="evenodd" d="M215.04 429.667V313.987C215.04 310.326 216.703 306.812 219.653 304.224C222.604 301.636 226.613 300.174 230.784 300.174H473.718C477.889 300.174 481.899 301.636 484.849 304.224C487.8 306.812 489.463 310.326 489.463 313.987V429.667H215.04Z" fill="#011C41"/>
<mask id="mask3_372_1389" style="mask-type:luminance" maskUnits="userSpaceOnUse" x="215" y="300" width="275" height="130">
<path d="M215.04 429.667V313.987C215.04 310.326 216.703 306.812 219.653 304.224C222.604 301.636 226.613 300.174 230.784 300.174H473.718C477.889 300.174 481.899 301.636 484.849 304.224C487.8 306.812 489.463 310.326 489.463 313.987V429.667H215.04Z" fill="white"/>
</mask>
<g mask="url(#mask3_372_1389)">
<path fill-rule="evenodd" clip-rule="evenodd" d="M221.531 423.163V313.987C221.531 312.136 222.443 310.406 223.931 309.106C225.742 307.51 228.223 306.678 230.784 306.678H473.718C476.28 306.678 478.761 307.523 480.571 309.106C482.06 310.406 482.972 312.15 482.972 313.987V423.163H221.531Z" fill="#012555"/>
</g>
<path d="M215.04 429.667V313.987C215.04 310.326 216.703 306.812 219.653 304.224C222.604 301.636 226.613 300.174 230.784 300.174H473.718C477.889 300.174 481.899 301.636 484.849 304.224C487.8 306.812 489.463 310.326 489.463 313.987V429.667H215.04Z" stroke="#4676A1" stroke-width="5" stroke-miterlimit="10" stroke-linecap="round" stroke-linejoin="round"/>
<path fill-rule="evenodd" clip-rule="evenodd" d="M352.258 450.722C358.306 450.722 363.228 455.375 363.228 461.102C363.228 466.828 358.306 471.481 352.258 471.481C346.21 471.481 341.288 466.828 341.288 461.102C341.288 455.375 346.196 450.722 352.258 450.722Z" fill="#666F89" stroke="#4676A1" stroke-width="5" stroke-miterlimit="10" stroke-linecap="round" stroke-linejoin="round"/>
<path fill-rule="evenodd" clip-rule="evenodd" d="M385.986 523.622H318.517L335.387 480.923H369.128L385.986 523.622Z" fill="white"/>
<mask id="mask4_372_1389" style="mask-type:luminance" maskUnits="userSpaceOnUse" x="318" y="480" width="68" height="44">
<path d="M385.986 523.622H318.517L335.387 480.923H369.128L385.986 523.622Z" fill="white"/>
</mask>
<g mask="url(#mask4_372_1389)">
<path fill-rule="evenodd" clip-rule="evenodd" d="M368.565 460.807C339.33 489.304 319.187 510.748 352.244 512.518C357.394 512.8 380.876 510.668 380.876 510.668C380.876 510.668 391.779 520.9 384.283 526.465C371.167 536.201 294.498 543.671 300.734 508.24C302.679 497.19 311.972 486.341 313.367 484.704C324.35 471.87 325.356 472.89 338.767 462.349" fill="#DBDBDB"/>
</g>
<path d="M385.986 523.622H318.517L335.387 480.923H369.128L385.986 523.622Z" stroke="#4676A1" stroke-width="5" stroke-miterlimit="10" stroke-linecap="round" stroke-linejoin="round"/>
<path fill-rule="evenodd" clip-rule="evenodd" d="M495.149 513.202C498.112 513.202 500.955 514.315 503.047 516.3C505.14 518.285 506.32 520.98 506.32 523.783C506.32 525.969 506.32 527.632 506.32 527.632H198.169C198.169 527.632 198.169 525.983 198.169 523.783C198.169 520.98 199.349 518.285 201.441 516.3C203.533 514.315 206.377 513.202 209.34 513.202C257.511 513.202 446.991 513.202 495.149 513.202Z" fill="#666F89"/>
<mask id="mask5_372_1389" style="mask-type:luminance" maskUnits="userSpaceOnUse" x="198" y="513" width="309" height="15">
<path d="M495.149 513.202C498.112 513.202 500.955 514.315 503.047 516.3C505.14 518.285 506.32 520.98 506.32 523.783C506.32 525.969 506.32 527.632 506.32 527.632H198.169C198.169 527.632 198.169 525.983 198.169 523.783C198.169 520.98 199.349 518.285 201.441 516.3C203.533 514.315 206.377 513.202 209.34 513.202C257.511 513.202 446.991 513.202 495.149 513.202Z" fill="white"/>
</mask>
<g mask="url(#mask5_372_1389)">
<path fill-rule="evenodd" clip-rule="evenodd" d="M216.448 492.872C214.342 494.669 215.214 505.987 216.072 513.658C216.528 517.735 220.149 520.833 224.467 520.86C269.863 521.235 506.494 523.166 506.494 523.166C506.025 529.912 498.595 541.391 479.552 545.723C441.519 554.4 425.614 550.658 310.309 553.823C204.231 556.733 166.721 555.567 168.934 522.697C169.189 518.982 169.806 517.534 169.98 517.118C172.622 510.989 173.695 511.593 176.323 505.491" fill="#424B68"/>
</g>
<path d="M495.149 513.202C498.112 513.202 500.955 514.315 503.047 516.3C505.14 518.285 506.32 520.98 506.32 523.783C506.32 525.969 506.32 527.632 506.32 527.632H198.169C198.169 527.632 198.169 525.983 198.169 523.783C198.169 520.98 199.349 518.285 201.441 516.3C203.533 514.315 206.377 513.202 209.34 513.202C257.511 513.202 446.991 513.202 495.149 513.202Z" stroke="#4676A1" stroke-width="5" stroke-miterlimit="10" stroke-linecap="round" stroke-linejoin="round"/>
<path fill-rule="evenodd" clip-rule="evenodd" d="M404.667 502.272V513.202H299.836V502.272H404.667Z" fill="#B6B7B8" stroke="#4676A1" stroke-width="5" stroke-miterlimit="10" stroke-linecap="round" stroke-linejoin="round"/>
<path fill-rule="evenodd" clip-rule="evenodd" d="M272.223 502.272V513.202H294.324V502.272H272.223Z" fill="#B6B7B8" stroke="#4676A1" stroke-width="5" stroke-miterlimit="10" stroke-linecap="round" stroke-linejoin="round"/>
<path fill-rule="evenodd" clip-rule="evenodd" d="M244.61 502.272V513.202H266.711V502.272H244.61Z" fill="#B6B7B8" stroke="#4676A1" stroke-width="5" stroke-miterlimit="10" stroke-linecap="round" stroke-linejoin="round"/>
<path fill-rule="evenodd" clip-rule="evenodd" d="M216.998 502.272V513.202H239.099V502.272H216.998Z" fill="#B6B7B8" stroke="#4676A1" stroke-width="5" stroke-miterlimit="10" stroke-linecap="round" stroke-linejoin="round"/>
<path fill-rule="evenodd" clip-rule="evenodd" d="M410.179 502.272V513.202H432.279V502.272H410.179Z" fill="#B6B7B8" stroke="#4676A1" stroke-width="5" stroke-miterlimit="10" stroke-linecap="round" stroke-linejoin="round"/>
<path fill-rule="evenodd" clip-rule="evenodd" d="M437.791 502.272V513.202H465.404V502.272H437.791Z" fill="#B6B7B8" stroke="#4676A1" stroke-width="5" stroke-miterlimit="10" stroke-linecap="round" stroke-linejoin="round"/>
<path fill-rule="evenodd" clip-rule="evenodd" d="M470.929 502.272V513.202H491.648V502.272H470.929Z" fill="#B6B7B8" stroke="#4676A1" stroke-width="5" stroke-miterlimit="10" stroke-linecap="round" stroke-linejoin="round"/>
<path fill-rule="evenodd" clip-rule="evenodd" d="M535.448 366.234C542.891 366.234 548.925 372.712 548.925 380.704C548.925 411.066 548.925 481.124 548.925 511.472C548.925 519.465 542.891 525.942 535.448 525.942C519.02 525.942 491.434 525.942 475.019 525.942C467.576 525.942 461.542 519.465 461.542 511.472C461.542 481.11 461.542 411.053 461.542 380.704C461.542 372.712 467.576 366.234 475.019 366.234C491.434 366.234 519.02 366.234 535.448 366.234Z" fill="#102637" stroke="#4676A1" stroke-width="5" stroke-miterlimit="10" stroke-linecap="round" stroke-linejoin="round"/>
<path fill-rule="evenodd" clip-rule="evenodd" d="M535.448 364.545C543.762 364.545 550.494 371.773 550.494 380.691V511.459C550.494 520.377 543.762 527.605 535.448 527.605H475.006C466.691 527.605 459.959 520.377 459.959 511.459V380.705C459.959 371.787 466.691 364.558 475.006 364.558H535.448V364.545ZM535.448 367.924H475.006C468.435 367.924 463.097 373.651 463.097 380.705V511.472C463.097 518.526 468.421 524.253 475.006 524.253H535.434C542.006 524.253 547.343 518.526 547.343 511.472V380.705C547.343 373.651 542.019 367.924 535.448 367.924Z" fill="#3E6A8E" stroke="#4676A1" stroke-width="5" stroke-miterlimit="10" stroke-linejoin="round"/>
<path fill-rule="evenodd" clip-rule="evenodd" d="M505.287 370.741C507.473 370.741 509.243 372.511 509.243 374.697C509.243 376.883 507.473 378.653 505.287 378.653C505.247 378.653 505.207 378.653 505.166 378.653C502.98 378.653 501.21 376.883 501.21 374.697C501.21 372.511 502.98 370.741 505.166 370.741C505.207 370.741 505.247 370.741 505.287 370.741Z" fill="#3D5A6A" stroke="#4676A1" stroke-width="5" stroke-miterlimit="10" stroke-linecap="round" stroke-linejoin="round"/>
<path fill-rule="evenodd" clip-rule="evenodd" d="M550.481 391.916C551.701 391.916 552.694 392.908 552.694 394.129C552.694 397.227 552.694 402.805 552.694 405.903C552.694 407.124 551.701 408.116 550.481 408.116V391.916Z" fill="#192E39" stroke="#4676A1" stroke-width="5" stroke-miterlimit="10" stroke-linecap="round" stroke-linejoin="round"/>
<path fill-rule="evenodd" clip-rule="evenodd" d="M550.481 414.513C551.701 414.513 552.694 415.506 552.694 416.726C552.694 419.824 552.694 425.403 552.694 428.5C552.694 429.721 551.701 430.713 550.481 430.713V414.513Z" fill="#192E39" stroke="#4676A1" stroke-width="5" stroke-miterlimit="10" stroke-linecap="round" stroke-linejoin="round"/>
<path fill-rule="evenodd" clip-rule="evenodd" d="M550.481 440.396C551.071 440.396 551.634 440.623 552.05 441.039C552.466 441.455 552.694 442.018 552.694 442.608C552.694 446.283 552.694 453.618 552.694 457.293C552.694 457.883 552.466 458.446 552.05 458.862C551.634 459.278 551.071 459.506 550.481 459.506V440.396Z" fill="#C45706" stroke="#4676A1" stroke-width="5" stroke-miterlimit="10" stroke-linecap="round" stroke-linejoin="round"/>
<path fill-rule="evenodd" clip-rule="evenodd" d="M264.861 423.525C266.161 423.525 267.409 424.048 268.334 424.96C269.259 425.885 269.769 427.132 269.769 428.433C269.769 447.919 269.769 518.647 269.769 518.647H126.57C126.57 518.647 126.57 447.905 126.57 428.433C126.57 427.132 127.093 425.885 128.005 424.96C128.93 424.035 130.177 423.525 131.478 423.525C153.498 423.525 242.854 423.525 264.861 423.525Z" fill="#414E60" stroke="#4676A1" stroke-width="5" stroke-miterlimit="10" stroke-linecap="round" stroke-linejoin="round"/>
<path fill-rule="evenodd" clip-rule="evenodd" d="M260.985 427.079C262.219 427.079 263.385 427.561 264.257 428.406C265.129 429.265 265.612 430.418 265.612 431.625C265.612 449.649 265.612 515.106 265.612 515.106H130.74C130.74 515.106 130.74 449.649 130.74 431.625C130.74 430.418 131.223 429.265 132.095 428.406C132.967 427.548 134.147 427.079 135.367 427.079C156.1 427.079 240.252 427.079 260.985 427.079Z" fill="#2A2A2A" stroke="#4676A1" stroke-width="5" stroke-miterlimit="10" stroke-linecap="round" stroke-linejoin="round"/>
<path fill-rule="evenodd" clip-rule="evenodd" d="M288.866 518.66C288.866 523.609 284.856 527.632 279.894 527.632C249.023 527.632 147.316 527.632 116.431 527.632C111.483 527.632 107.459 523.622 107.459 518.66H288.866Z" fill="#25354B" stroke="#4676A1" stroke-width="5" stroke-miterlimit="10" stroke-linecap="round" stroke-linejoin="round"/>
<path fill-rule="evenodd" clip-rule="evenodd" d="M191.625 522.026V524.266H154.41V522.026H191.625Z" fill="#517CAE" stroke="#4676A1" stroke-width="5" stroke-miterlimit="10" stroke-linecap="round" stroke-linejoin="round"/>
<path fill-rule="evenodd" clip-rule="evenodd" d="M241.942 522.026V524.266H204.727V522.026H241.942Z" fill="#517CAE" stroke="#4676A1" stroke-width="5" stroke-miterlimit="10" stroke-linecap="round" stroke-linejoin="round"/>
<path d="M187.883 411.429C187.883 411.429 187.883 320.209 187.883 295.748C187.883 290.853 189.828 286.16 193.288 282.7C196.748 279.24 201.441 277.295 206.336 277.295C229.886 277.295 270.359 277.295 293.895 277.295C298.79 277.295 303.483 275.351 306.943 271.891C310.403 268.431 312.348 263.737 312.348 258.842C312.348 245.163 312.348 228.896 312.348 228.896M522.413 352.328C522.413 352.328 522.413 320.209 522.413 295.762C522.413 290.867 520.066 286.173 515.895 282.713C511.724 279.253 506.052 277.309 500.151 277.309C471.76 277.309 422.932 277.309 394.542 277.309C388.641 277.309 382.982 275.364 378.798 271.904C374.627 268.444 372.28 263.75 372.28 258.855C372.28 245.177 372.28 228.909 372.28 228.909M340.014 221.976V275.471" stroke="#4676A1" stroke-width="15" stroke-miterlimit="10" stroke-linecap="round" stroke-linejoin="round"/>
<path fill-rule="evenodd" clip-rule="evenodd" d="M312.361 221.976C315.164 221.976 317.457 224.256 317.457 227.072C317.457 229.888 315.177 232.168 312.361 232.168C309.558 232.168 307.265 229.888 307.265 227.072C307.265 224.256 309.545 221.976 312.361 221.976Z" fill="#467D9C" stroke="#4676A1" stroke-width="15" stroke-miterlimit="10" stroke-linecap="round" stroke-linejoin="round"/>
<path fill-rule="evenodd" clip-rule="evenodd" d="M372.267 221.976C369.464 221.976 367.171 224.256 367.171 227.072C367.171 229.888 369.45 232.168 372.267 232.168C375.069 232.168 377.363 229.888 377.363 227.072C377.363 224.256 375.083 221.976 372.267 221.976Z" fill="#467D9C" stroke="#4676A1" stroke-width="15" stroke-miterlimit="10" stroke-linecap="round" stroke-linejoin="round"/>
<path fill-rule="evenodd" clip-rule="evenodd" d="M340.014 216.88C342.817 216.88 345.11 219.16 345.11 221.976C345.11 224.779 342.83 227.072 340.014 227.072C337.211 227.072 334.918 224.792 334.918 221.976C334.931 219.16 337.211 216.88 340.014 216.88Z" fill="#467D9C" stroke="#4676A1" stroke-width="15" stroke-miterlimit="10" stroke-linecap="round" stroke-linejoin="round"/>
<path fill-rule="evenodd" clip-rule="evenodd" d="M411.748 286.857V414.875C411.748 417.276 409.79 419.234 407.389 419.234H267.342C264.941 419.234 262.983 417.276 262.983 414.875V286.857C262.983 284.456 264.941 282.499 267.342 282.499H407.376C409.79 282.499 411.748 284.443 411.748 286.857Z" fill="white" stroke="#4676A1" stroke-width="5" stroke-miterlimit="10" stroke-linecap="round" stroke-linejoin="round"/>
<path fill-rule="evenodd" clip-rule="evenodd" d="M374.493 292.878C374.493 294.394 373.259 295.627 371.744 295.627H319.013C317.497 295.627 316.264 294.394 316.264 292.878C316.264 291.363 317.497 290.129 319.013 290.129H371.744C373.259 290.129 374.493 291.363 374.493 292.878Z" fill="#85A6BE" stroke="#4676A1" stroke-width="5" stroke-miterlimit="10" stroke-linejoin="round"/>
<path fill-rule="evenodd" clip-rule="evenodd" d="M402.172 292.878C402.172 294.394 400.939 295.627 399.423 295.627H379.455C377.939 295.627 376.706 294.394 376.706 292.878C376.706 291.363 377.939 290.129 379.455 290.129H399.423C400.939 290.129 402.172 291.363 402.172 292.878Z" fill="#85A6BE" stroke="#4676A1" stroke-width="5" stroke-miterlimit="10" stroke-linejoin="round"/>
<path fill-rule="evenodd" clip-rule="evenodd" d="M275.509 290.129C277.131 290.129 278.446 291.443 278.446 293.066C278.446 294.689 277.131 296.003 275.509 296.003C273.886 296.003 272.572 294.689 272.572 293.066C272.558 291.443 273.886 290.129 275.509 290.129Z" fill="#85A6BE" stroke="#4676A1" stroke-width="5" stroke-miterlimit="10" stroke-linecap="round" stroke-linejoin="round"/>
<path fill-rule="evenodd" clip-rule="evenodd" d="M283.595 290.129C285.218 290.129 286.532 291.443 286.532 293.066C286.532 294.689 285.218 296.003 283.595 296.003C281.973 296.003 280.658 294.689 280.658 293.066C280.658 291.443 281.973 290.129 283.595 290.129Z" fill="#85A6BE" stroke="#4676A1" stroke-width="5" stroke-miterlimit="10" stroke-linecap="round" stroke-linejoin="round"/>
<path fill-rule="evenodd" clip-rule="evenodd" d="M291.682 290.129C293.305 290.129 294.619 291.443 294.619 293.066C294.619 294.689 293.305 296.003 291.682 296.003C290.059 296.003 288.745 294.689 288.745 293.066C288.745 291.443 290.059 290.129 291.682 290.129Z" fill="#85A6BE" stroke="#4676A1" stroke-width="5" stroke-miterlimit="10" stroke-linecap="round" stroke-linejoin="round"/>
<path fill-rule="evenodd" clip-rule="evenodd" d="M293.814 344.804C293.479 343.235 293.868 341.599 294.874 340.352C295.879 339.105 297.395 338.38 299.004 338.38C315.647 338.38 359.325 338.38 375.968 338.38C377.577 338.38 379.093 339.105 380.098 340.352C381.104 341.599 381.493 343.235 381.158 344.804C377.443 362.037 367.519 408.009 367.519 408.009H307.453C307.439 408.009 297.529 362.037 293.814 344.804Z" fill="#BD7708" stroke="#4676A1" stroke-width="5" stroke-miterlimit="10" stroke-linecap="round" stroke-linejoin="round"/>
<path fill-rule="evenodd" clip-rule="evenodd" d="M367.05 305.296V380.503H302.504V305.296H367.05Z" fill="#F6F6F6"/>
<mask id="mask6_372_1389" style="mask-type:luminance" maskUnits="userSpaceOnUse" x="302" y="305" width="66" height="76">
<path d="M367.05 305.296V380.503H302.504V305.296H367.05Z" fill="white"/>
</mask>
<g mask="url(#mask6_372_1389)">
<path fill-rule="evenodd" clip-rule="evenodd" d="M369.933 308.958V384.165H305.388V308.958H369.933Z" fill="#E4E4E4"/>
</g>
<path d="M367.05 305.296V380.503H302.504V305.296H367.05Z" stroke="#4676A1" stroke-width="5" stroke-miterlimit="10" stroke-linecap="round" stroke-linejoin="round"/>
<path fill-rule="evenodd" clip-rule="evenodd" d="M372.454 311.264V386.471H307.922V311.264H372.454Z" fill="white" stroke="#4676A1" stroke-width="5" stroke-miterlimit="10" stroke-linecap="round" stroke-linejoin="round"/>
<path fill-rule="evenodd" clip-rule="evenodd" d="M372.454 311.264V386.471H307.922V311.264H372.454Z" fill="white"/>
<path fill-rule="evenodd" clip-rule="evenodd" d="M354.377 320.128V325.667H326V320.128H354.377Z" fill="#0063B0"/>
<path fill-rule="evenodd" clip-rule="evenodd" d="M367.05 330.871V333.177H311.811V330.871H367.05Z" fill="#6EA6D1"/>
<path fill-rule="evenodd" clip-rule="evenodd" d="M367.05 340.593V342.9H311.811V340.593H367.05Z" fill="#6EA6D1"/>
<path fill-rule="evenodd" clip-rule="evenodd" d="M367.05 350.316V352.623H311.811V350.316H367.05Z" fill="#6EA6D1"/>
<path d="M372.454 311.264V386.471H307.922V311.264H372.454Z" stroke="#4676A1" stroke-width="5" stroke-miterlimit="10" stroke-linecap="round" stroke-linejoin="round"/>
<path fill-rule="evenodd" clip-rule="evenodd" d="M289.241 351.094C289.013 349.981 289.308 348.828 290.019 347.956C290.743 347.084 291.816 346.575 292.943 346.575C302.692 346.575 324.511 346.575 324.511 346.575L337.479 358.859C337.479 358.859 369.383 358.859 381.788 358.859C382.955 358.859 384.055 359.395 384.765 360.307C385.476 361.219 385.731 362.426 385.449 363.553C382.928 373.611 377.095 396.985 375.056 405.139C374.64 406.829 373.125 408.009 371.382 408.009C359.567 408.009 315.794 408.009 303.711 408.009C301.914 408.009 300.359 406.735 299.997 404.965C298.012 394.947 291.615 362.989 289.241 351.094Z" fill="#FF9C00"/>
<mask id="mask7_372_1389" style="mask-type:luminance" maskUnits="userSpaceOnUse" x="289" y="346" width="97" height="63">
<path d="M289.241 351.094C289.013 349.981 289.308 348.828 290.019 347.956C290.743 347.084 291.816 346.575 292.943 346.575C302.692 346.575 324.511 346.575 324.511 346.575L337.479 358.859C337.479 358.859 369.383 358.859 381.788 358.859C382.955 358.859 384.055 359.395 384.765 360.307C385.476 361.219 385.731 362.426 385.449 363.553C382.928 373.611 377.095 396.985 375.056 405.139C374.64 406.829 373.125 408.009 371.382 408.009C359.567 408.009 315.794 408.009 303.711 408.009C301.914 408.009 300.359 406.735 299.997 404.965C298.012 394.947 291.615 362.989 289.241 351.094Z" fill="white"/>
</mask>
<g mask="url(#mask7_372_1389)">
<path fill-rule="evenodd" clip-rule="evenodd" d="M376.88 352.891C376.236 359.798 375.995 389.891 356.952 399.305C340.403 407.473 315.258 404.925 298.83 406.453C299.313 407.003 304.221 421.178 342.039 422.144C377.524 423.042 390.814 412.206 398.243 392.493C409.978 361.34 391.337 356.096 388.078 353.897" fill="#E88E00"/>
</g>
<path d="M289.241 351.094C289.013 349.981 289.308 348.828 290.019 347.956C290.743 347.084 291.816 346.575 292.943 346.575C302.692 346.575 324.511 346.575 324.511 346.575L337.479 358.859C337.479 358.859 369.383 358.859 381.788 358.859C382.955 358.859 384.055 359.395 384.765 360.307C385.476 361.219 385.731 362.426 385.449 363.553C382.928 373.611 377.095 396.985 375.056 405.139C374.64 406.829 373.125 408.009 371.382 408.009C359.567 408.009 315.794 408.009 303.711 408.009C301.914 408.009 300.359 406.735 299.997 404.965C298.012 394.947 291.615 362.989 289.241 351.094Z" stroke="#4676A1" stroke-width="5" stroke-miterlimit="10" stroke-linecap="round" stroke-linejoin="round"/>
<path fill-rule="evenodd" clip-rule="evenodd" d="M240.882 421.741V495.232C240.882 496.613 239.756 497.739 238.375 497.739H157.978C156.596 497.739 155.47 496.613 155.47 495.232V421.741C155.47 420.36 156.596 419.233 157.978 419.233H238.375C239.756 419.233 240.882 420.36 240.882 421.741Z" fill="white" stroke="#4676A1" stroke-width="5" stroke-miterlimit="10" stroke-linecap="round" stroke-linejoin="round"/>
<path fill-rule="evenodd" clip-rule="evenodd" d="M219.492 425.201C219.492 426.073 218.781 426.784 217.91 426.784H187.642C186.77 426.784 186.059 426.073 186.059 425.201C186.059 424.329 186.77 423.619 187.642 423.619H217.91C218.781 423.619 219.492 424.316 219.492 425.201Z" fill="#85A6BE" stroke="#4676A1" stroke-width="5" stroke-miterlimit="10" stroke-linejoin="round"/>
<path fill-rule="evenodd" clip-rule="evenodd" d="M235.384 425.201C235.384 426.073 234.673 426.784 233.801 426.784H222.335C221.464 426.784 220.753 426.073 220.753 425.201C220.753 424.329 221.464 423.619 222.335 423.619H233.801C234.673 423.619 235.384 424.316 235.384 425.201Z" fill="#85A6BE" stroke="#4676A1" stroke-width="5" stroke-miterlimit="10" stroke-linejoin="round"/>
<path fill-rule="evenodd" clip-rule="evenodd" d="M162.658 423.619C163.597 423.619 164.348 424.37 164.348 425.308C164.348 426.247 163.597 426.998 162.658 426.998C161.719 426.998 160.968 426.247 160.968 425.308C160.968 424.37 161.732 423.619 162.658 423.619Z" fill="#85A6BE" stroke="#4676A1" stroke-width="5" stroke-miterlimit="10" stroke-linecap="round" stroke-linejoin="round"/>
<path fill-rule="evenodd" clip-rule="evenodd" d="M167.298 423.619C168.237 423.619 168.988 424.37 168.988 425.308C168.988 426.247 168.237 426.998 167.298 426.998C166.359 426.998 165.608 426.247 165.608 425.308C165.608 424.37 166.373 423.619 167.298 423.619Z" fill="#85A6BE" stroke="#4676A1" stroke-width="5" stroke-miterlimit="10" stroke-linecap="round" stroke-linejoin="round"/>
<path fill-rule="evenodd" clip-rule="evenodd" d="M171.951 423.619C172.89 423.619 173.641 424.37 173.641 425.308C173.641 426.247 172.89 426.998 171.951 426.998C171.013 426.998 170.262 426.247 170.262 425.308C170.262 424.37 171.013 423.619 171.951 423.619Z" fill="#85A6BE" stroke="#4676A1" stroke-width="5" stroke-miterlimit="10" stroke-linecap="round" stroke-linejoin="round"/>
<path fill-rule="evenodd" clip-rule="evenodd" d="M173.172 455C172.984 454.101 173.199 453.163 173.775 452.438C174.352 451.728 175.224 451.312 176.149 451.312C185.711 451.312 210.775 451.312 220.337 451.312C221.262 451.312 222.134 451.728 222.711 452.438C223.287 453.149 223.515 454.088 223.314 455C221.182 464.897 215.482 491.289 215.482 491.289H180.99C180.99 491.289 175.304 464.897 173.172 455Z" fill="#BD7708" stroke="#4676A1" stroke-width="5" stroke-miterlimit="10" stroke-linecap="round" stroke-linejoin="round"/>
<path fill-rule="evenodd" clip-rule="evenodd" d="M215.214 432.322V475.505H178.161V432.322H215.214Z" fill="#F6F6F6"/>
<mask id="mask8_372_1389" style="mask-type:luminance" maskUnits="userSpaceOnUse" x="178" y="432" width="38" height="44">
<path d="M215.214 432.322V475.505H178.161V432.322H215.214Z" fill="white"/>
</mask>
<g mask="url(#mask8_372_1389)">
<path fill-rule="evenodd" clip-rule="evenodd" d="M216.877 434.428V477.61H179.81V434.428H216.877Z" fill="#E4E4E4"/>
</g>
<path d="M215.214 432.322V475.505H178.161V432.322H215.214Z" stroke="#4676A1" stroke-width="5" stroke-miterlimit="10" stroke-linecap="round" stroke-linejoin="round"/>
<path fill-rule="evenodd" clip-rule="evenodd" d="M218.326 435.742V478.925H181.272V435.742H218.326Z" fill="white" stroke="#4676A1" stroke-width="5" stroke-miterlimit="10" stroke-linecap="round" stroke-linejoin="round"/>
<path fill-rule="evenodd" clip-rule="evenodd" d="M218.326 435.742V478.925H181.272V435.742H218.326Z" fill="white"/>
<path fill-rule="evenodd" clip-rule="evenodd" d="M207.946 440.838V444.03H191.652V440.838H207.946Z" fill="#0063B0"/>
<path fill-rule="evenodd" clip-rule="evenodd" d="M215.214 447.007V448.335H183.511V447.007H215.214Z" fill="#6EA6D1"/>
<path fill-rule="evenodd" clip-rule="evenodd" d="M215.214 452.586V453.914H183.511V452.586H215.214Z" fill="#6EA6D1"/>
<path fill-rule="evenodd" clip-rule="evenodd" d="M215.214 458.178V459.506H183.511V458.178H215.214Z" fill="#6EA6D1"/>
<path d="M218.326 435.742V478.925H181.272V435.742H218.326Z" stroke="#4676A1" stroke-width="5" stroke-miterlimit="10" stroke-linecap="round" stroke-linejoin="round"/>
<path fill-rule="evenodd" clip-rule="evenodd" d="M170.543 458.62C170.409 457.977 170.583 457.32 170.999 456.823C171.415 456.314 172.032 456.032 172.676 456.032C178.268 456.032 190.793 456.032 190.793 456.032L198.236 463.086C198.236 463.086 216.555 463.086 223.676 463.086C224.347 463.086 224.977 463.395 225.393 463.918C225.809 464.441 225.956 465.138 225.782 465.782C224.333 471.562 220.981 484.972 219.814 489.653C219.573 490.618 218.701 491.302 217.709 491.302C210.923 491.302 185.791 491.302 178.858 491.302C177.825 491.302 176.927 490.565 176.726 489.559C175.572 483.792 171.911 465.447 170.543 458.62Z" fill="#FF9C00"/>
<mask id="mask9_372_1389" style="mask-type:luminance" maskUnits="userSpaceOnUse" x="170" y="456" width="56" height="36">
<path d="M170.543 458.62C170.409 457.977 170.583 457.32 170.999 456.823C171.415 456.314 172.032 456.032 172.676 456.032C178.268 456.032 190.793 456.032 190.793 456.032L198.236 463.086C198.236 463.086 216.555 463.086 223.676 463.086C224.347 463.086 224.977 463.395 225.393 463.918C225.809 464.441 225.956 465.138 225.782 465.782C224.333 471.562 220.981 484.972 219.814 489.653C219.573 490.618 218.701 491.302 217.709 491.302C210.923 491.302 185.791 491.302 178.858 491.302C177.825 491.302 176.927 490.565 176.726 489.559C175.572 483.792 171.911 465.447 170.543 458.62Z" fill="white"/>
</mask>
<g mask="url(#mask9_372_1389)">
<path fill-rule="evenodd" clip-rule="evenodd" d="M220.86 459.653C220.485 463.623 220.351 480.896 209.421 486.3C199.926 490.994 185.483 489.519 176.055 490.404C176.323 490.712 179.153 498.853 200.865 499.403C221.236 499.912 228.866 493.703 233.131 482.371C239.863 464.481 229.161 461.477 227.297 460.217" fill="#E88E00"/>
</g>
<path d="M170.543 458.62C170.409 457.977 170.583 457.32 170.999 456.823C171.415 456.314 172.032 456.032 172.676 456.032C178.268 456.032 190.793 456.032 190.793 456.032L198.236 463.086C198.236 463.086 216.555 463.086 223.676 463.086C224.347 463.086 224.977 463.395 225.393 463.918C225.809 464.441 225.956 465.138 225.782 465.782C224.333 471.562 220.981 484.972 219.814 489.653C219.573 490.618 218.701 491.302 217.709 491.302C210.923 491.302 185.791 491.302 178.858 491.302C177.825 491.302 176.927 490.565 176.726 489.559C175.572 483.792 171.911 465.447 170.543 458.62Z" stroke="#4676A1" stroke-width="5" stroke-miterlimit="10" stroke-linecap="round" stroke-linejoin="round"/>
<path fill-rule="evenodd" clip-rule="evenodd" d="M588.527 396.959V494.427C588.527 496.265 587.039 497.74 585.215 497.74H478.6C476.763 497.74 475.287 496.251 475.287 494.427V396.959C475.287 395.121 476.776 393.646 478.6 393.646H585.215C587.039 393.633 588.527 395.121 588.527 396.959Z" fill="white" stroke="#4676A1" stroke-width="5" stroke-miterlimit="10" stroke-linecap="round" stroke-linejoin="round"/>
<path fill-rule="evenodd" clip-rule="evenodd" d="M560.15 401.545C560.15 402.698 559.211 403.637 558.058 403.637H517.92C516.767 403.637 515.828 402.698 515.828 401.545C515.828 400.391 516.767 399.453 517.92 399.453H558.058C559.211 399.453 560.15 400.391 560.15 401.545Z" fill="#85A6BE" stroke="#4676A1" stroke-width="5" stroke-miterlimit="10" stroke-linejoin="round"/>
<path fill-rule="evenodd" clip-rule="evenodd" d="M581.232 401.545C581.232 402.698 580.293 403.637 579.14 403.637H563.932C562.779 403.637 561.84 402.698 561.84 401.545C561.84 400.391 562.779 399.453 563.932 399.453H579.14C580.293 399.453 581.232 400.391 581.232 401.545Z" fill="#85A6BE" stroke="#4676A1" stroke-width="5" stroke-miterlimit="10" stroke-linejoin="round"/>
<path fill-rule="evenodd" clip-rule="evenodd" d="M484.796 399.453C486.029 399.453 487.035 400.458 487.035 401.692C487.035 402.926 486.029 403.932 484.796 403.932C483.562 403.932 482.556 402.926 482.556 401.692C482.556 400.445 483.562 399.453 484.796 399.453Z" fill="#85A6BE" stroke="#4676A1" stroke-width="5" stroke-miterlimit="10" stroke-linecap="round" stroke-linejoin="round"/>
<path fill-rule="evenodd" clip-rule="evenodd" d="M490.964 399.453C492.198 399.453 493.204 400.458 493.204 401.692C493.204 402.926 492.198 403.932 490.964 403.932C489.731 403.932 488.725 402.926 488.725 401.692C488.725 400.445 489.717 399.453 490.964 399.453Z" fill="#85A6BE" stroke="#4676A1" stroke-width="5" stroke-miterlimit="10" stroke-linecap="round" stroke-linejoin="round"/>
<path fill-rule="evenodd" clip-rule="evenodd" d="M497.12 399.453C498.354 399.453 499.36 400.458 499.36 401.692C499.36 402.926 498.354 403.932 497.12 403.932C495.886 403.932 494.88 402.926 494.88 401.692C494.88 400.445 495.886 399.453 497.12 399.453Z" fill="#85A6BE" stroke="#4676A1" stroke-width="5" stroke-miterlimit="10" stroke-linecap="round" stroke-linejoin="round"/>
<path fill-rule="evenodd" clip-rule="evenodd" d="M498.743 441.066C498.488 439.873 498.783 438.626 499.547 437.673C500.312 436.721 501.465 436.171 502.685 436.171C515.358 436.171 548.604 436.171 561.277 436.171C562.497 436.171 563.65 436.721 564.415 437.673C565.179 438.626 565.474 439.873 565.219 441.066C562.39 454.182 554.84 489.184 554.84 489.184H509.109C509.123 489.184 501.572 454.195 498.743 441.066Z" fill="#BD7708" stroke="#4676A1" stroke-width="5" stroke-miterlimit="10" stroke-linecap="round" stroke-linejoin="round"/>
<path fill-rule="evenodd" clip-rule="evenodd" d="M554.491 411V468.263H505.354V411H554.491Z" fill="#F6F6F6"/>
<mask id="mask10_372_1389" style="mask-type:luminance" maskUnits="userSpaceOnUse" x="505" y="410" width="50" height="59">
<path d="M554.491 411V468.263H505.354V411H554.491Z" fill="white"/>
</mask>
<g mask="url(#mask10_372_1389)">
<path fill-rule="evenodd" clip-rule="evenodd" d="M556.69 413.789V471.039H507.553V413.789H556.69Z" fill="#E4E4E4"/>
</g>
<path d="M554.491 411V468.263H505.354V411H554.491Z" stroke="#4676A1" stroke-width="5" stroke-miterlimit="10" stroke-linecap="round" stroke-linejoin="round"/>
<path fill-rule="evenodd" clip-rule="evenodd" d="M558.608 415.532V472.796H509.471V415.532H558.608Z" fill="white" stroke="#4676A1" stroke-width="5" stroke-miterlimit="10" stroke-linecap="round" stroke-linejoin="round"/>
<path fill-rule="evenodd" clip-rule="evenodd" d="M558.608 415.532V472.796H509.471V415.532H558.608Z" fill="white"/>
<path fill-rule="evenodd" clip-rule="evenodd" d="M544.849 422.291V426.515H523.244V422.291H544.849Z" fill="#0063B0"/>
<path fill-rule="evenodd" clip-rule="evenodd" d="M554.491 430.472V432.228H512.448V430.472H554.491Z" fill="#6EA6D1"/>
<path fill-rule="evenodd" clip-rule="evenodd" d="M554.491 437.875V439.631H512.448V437.875H554.491Z" fill="#6EA6D1"/>
<path fill-rule="evenodd" clip-rule="evenodd" d="M554.491 445.277V447.034H512.448V445.277H554.491Z" fill="#6EA6D1"/>
<path d="M558.608 415.532V472.796H509.471V415.532H558.608Z" stroke="#4676A1" stroke-width="5" stroke-miterlimit="10" stroke-linecap="round" stroke-linejoin="round"/>
<path fill-rule="evenodd" clip-rule="evenodd" d="M495.256 445.867C495.082 445.022 495.31 444.137 495.859 443.48C496.409 442.809 497.227 442.42 498.086 442.42C505.515 442.42 522.118 442.42 522.118 442.42L531.988 451.781C531.988 451.781 556.275 451.781 565.716 451.781C566.601 451.781 567.446 452.183 567.982 452.894C568.532 453.592 568.72 454.503 568.505 455.362C566.587 463.019 562.148 480.815 560.593 487.024C560.271 488.312 559.118 489.21 557.803 489.21C548.805 489.21 515.479 489.21 506.293 489.21C504.925 489.21 503.732 488.245 503.463 486.89C501.935 479.26 497.066 454.919 495.256 445.867Z" fill="#FF9C00"/>
<mask id="mask11_372_1389" style="mask-type:luminance" maskUnits="userSpaceOnUse" x="495" y="442" width="74" height="48">
<path d="M495.256 445.867C495.082 445.022 495.31 444.137 495.859 443.48C496.409 442.809 497.227 442.42 498.086 442.42C505.515 442.42 522.118 442.42 522.118 442.42L531.988 451.781C531.988 451.781 556.275 451.781 565.716 451.781C566.601 451.781 567.446 452.183 567.982 452.894C568.532 453.592 568.72 454.503 568.505 455.362C566.587 463.019 562.148 480.815 560.593 487.024C560.271 488.312 559.118 489.21 557.803 489.21C548.805 489.21 515.479 489.21 506.293 489.21C504.925 489.21 503.732 488.245 503.463 486.89C501.935 479.26 497.066 454.919 495.256 445.867Z" fill="white"/>
</mask>
<g mask="url(#mask11_372_1389)">
<path fill-rule="evenodd" clip-rule="evenodd" d="M561.974 447.235C561.478 452.492 561.304 475.411 546.793 482.572C534.201 488.795 515.05 486.85 502.538 488.017C502.9 488.432 506.642 499.228 535.434 499.952C562.457 500.636 572.569 492.389 578.228 477.369C587.159 453.659 572.971 449.662 570.49 447.986" fill="#E88E00"/>
</g>
<path d="M495.256 445.867C495.082 445.022 495.31 444.137 495.859 443.48C496.409 442.809 497.227 442.42 498.086 442.42C505.515 442.42 522.118 442.42 522.118 442.42L531.988 451.781C531.988 451.781 556.275 451.781 565.716 451.781C566.601 451.781 567.446 452.183 567.982 452.894C568.532 453.592 568.72 454.503 568.505 455.362C566.587 463.019 562.148 480.815 560.593 487.024C560.271 488.312 559.118 489.21 557.803 489.21C548.805 489.21 515.479 489.21 506.293 489.21C504.925 489.21 503.732 488.245 503.463 486.89C501.935 479.26 497.066 454.919 495.256 445.867Z" stroke="#4676A1" stroke-width="5" stroke-miterlimit="10" stroke-linecap="round" stroke-linejoin="round"/>
<path fill-rule="evenodd" clip-rule="evenodd" d="M284.963 209.812C259.174 209.812 238.227 188.516 238.227 162.298C238.227 136.081 259.161 114.784 284.963 114.784C285.446 114.784 285.942 114.798 286.425 114.811C292.782 84.6506 319.174 62 350.742 62C387.045 62 416.508 91.9595 416.508 128.879V142.933C419.888 142.933 423.321 143.47 426.701 144.583C443.96 150.296 453.401 169.192 447.782 186.733C443.263 200.841 430.362 209.812 416.508 209.812H284.963Z" fill="#EAEAEA" stroke="#4676A1" stroke-width="5" stroke-miterlimit="10" stroke-linecap="round" stroke-linejoin="round"/>
<path fill-rule="evenodd" clip-rule="evenodd" d="M286.425 114.811C302.357 117.963 313.219 124.936 318.503 135.906L286.425 114.811Z" fill="#78B2CC"/>
<path d="M286.425 114.811C302.357 117.963 313.219 124.936 318.503 135.906" stroke="#4676A1" stroke-width="5" stroke-miterlimit="10" stroke-linecap="round" stroke-linejoin="round"/>
<path fill-rule="evenodd" clip-rule="evenodd" d="M272.062 209.812C246.273 209.812 225.326 188.516 225.326 162.298C225.326 136.081 246.26 114.784 272.062 114.784C272.545 114.784 273.041 114.798 273.524 114.811C279.881 84.6506 306.273 62 337.841 62C374.144 62 403.607 91.9595 403.607 128.879V142.933C406.987 142.933 410.42 143.47 413.8 144.583C431.059 150.296 440.5 169.192 434.881 186.733C430.362 200.841 417.461 209.812 403.607 209.812H272.062Z" fill="white" stroke="#4676A1" stroke-width="5" stroke-miterlimit="10" stroke-linecap="round" stroke-linejoin="round"/>
<path fill-rule="evenodd" clip-rule="evenodd" d="M382.231 112.934V190.139C382.231 191.587 381.051 192.767 379.602 192.767H295.142C293.693 192.767 292.513 191.587 292.513 190.139V112.934C292.513 111.485 293.693 110.305 295.142 110.305H379.602C381.051 110.305 382.231 111.485 382.231 112.934Z" fill="white" stroke="#4676A1" stroke-width="5" stroke-miterlimit="10" stroke-linecap="round" stroke-linejoin="round"/>
<path fill-rule="evenodd" clip-rule="evenodd" d="M359.754 116.568C359.754 117.48 359.017 118.231 358.091 118.231H326.295C325.383 118.231 324.632 117.494 324.632 116.568C324.632 115.656 325.369 114.905 326.295 114.905H358.091C359.017 114.905 359.754 115.656 359.754 116.568Z" fill="#85A6BE" stroke="#4676A1" stroke-width="5" stroke-miterlimit="10" stroke-linejoin="round"/>
<path fill-rule="evenodd" clip-rule="evenodd" d="M376.451 116.568C376.451 117.48 375.713 118.231 374.788 118.231H362.745C361.833 118.231 361.082 117.494 361.082 116.568C361.082 115.656 361.82 114.905 362.745 114.905H374.788C375.7 114.905 376.451 115.656 376.451 116.568Z" fill="#85A6BE" stroke="#4676A1" stroke-width="5" stroke-miterlimit="10" stroke-linejoin="round"/>
<path fill-rule="evenodd" clip-rule="evenodd" d="M300.05 114.905C301.029 114.905 301.82 115.697 301.82 116.675C301.82 117.654 301.029 118.446 300.05 118.446C299.071 118.446 298.28 117.654 298.28 116.675C298.28 115.697 299.071 114.905 300.05 114.905Z" fill="#85A6BE" stroke="#4676A1" stroke-width="5" stroke-miterlimit="10" stroke-linecap="round" stroke-linejoin="round"/>
<path fill-rule="evenodd" clip-rule="evenodd" d="M304.932 114.905C305.911 114.905 306.702 115.697 306.702 116.675C306.702 117.654 305.911 118.446 304.932 118.446C303.953 118.446 303.161 117.654 303.161 116.675C303.161 115.697 303.953 114.905 304.932 114.905Z" fill="#85A6BE" stroke="#4676A1" stroke-width="5" stroke-miterlimit="10" stroke-linecap="round" stroke-linejoin="round"/>
<path fill-rule="evenodd" clip-rule="evenodd" d="M309.813 114.905C310.792 114.905 311.583 115.697 311.583 116.675C311.583 117.654 310.792 118.446 309.813 118.446C308.834 118.446 308.043 117.654 308.043 116.675C308.043 115.697 308.834 114.905 309.813 114.905Z" fill="#85A6BE" stroke="#4676A1" stroke-width="5" stroke-miterlimit="10" stroke-linecap="round" stroke-linejoin="round"/>
<path fill-rule="evenodd" clip-rule="evenodd" d="M311.101 147.882C310.899 146.943 311.127 145.951 311.744 145.2C312.348 144.449 313.273 144.006 314.239 144.006C324.283 144.006 350.622 144.006 360.653 144.006C361.619 144.006 362.53 144.449 363.147 145.2C363.751 145.951 363.992 146.943 363.791 147.882C361.551 158.275 355.57 186.009 355.57 186.009H319.335C319.321 185.995 313.34 158.275 311.101 147.882Z" fill="#BD7708" stroke="#4676A1" stroke-width="5" stroke-miterlimit="10" stroke-linecap="round" stroke-linejoin="round"/>
<path fill-rule="evenodd" clip-rule="evenodd" d="M355.262 124.064V169.419H316.344V124.064H355.262Z" fill="#F6F6F6"/>
<mask id="mask12_372_1389" style="mask-type:luminance" maskUnits="userSpaceOnUse" x="316" y="124" width="40" height="46">
<path d="M355.262 124.064V169.419H316.344V124.064H355.262Z" fill="white"/>
</mask>
<g mask="url(#mask12_372_1389)">
<path fill-rule="evenodd" clip-rule="evenodd" d="M357.005 126.264V171.619H318.074V126.264H357.005Z" fill="#E4E4E4"/>
</g>
<path d="M355.262 124.064V169.419H316.344V124.064H355.262Z" stroke="#4676A1" stroke-width="5" stroke-miterlimit="10" stroke-linecap="round" stroke-linejoin="round"/>
<path fill-rule="evenodd" clip-rule="evenodd" d="M358.534 127.659V173.014H319.603V127.659H358.534Z" fill="white" stroke="#4676A1" stroke-width="5" stroke-miterlimit="10" stroke-linecap="round" stroke-linejoin="round"/>
<path fill-rule="evenodd" clip-rule="evenodd" d="M358.534 127.659V173.014H319.603V127.659H358.534Z" fill="white"/>
<path fill-rule="evenodd" clip-rule="evenodd" d="M347.618 132.996V136.349H330.506V132.996H347.618Z" fill="#0063B0"/>
<path fill-rule="evenodd" clip-rule="evenodd" d="M355.262 139.487V140.868H321.95V139.487H355.262Z" fill="#6EA6D1"/>
<path fill-rule="evenodd" clip-rule="evenodd" d="M355.262 145.347V146.742H321.95V145.347H355.262Z" fill="#6EA6D1"/>
<path fill-rule="evenodd" clip-rule="evenodd" d="M355.262 151.208V152.603H321.95V151.208H355.262Z" fill="#6EA6D1"/>
<path d="M358.534 127.659V173.014H319.603V127.659H358.534Z" stroke="#4676A1" stroke-width="5" stroke-miterlimit="10" stroke-linecap="round" stroke-linejoin="round"/>
<path fill-rule="evenodd" clip-rule="evenodd" d="M308.338 151.677C308.204 151.006 308.378 150.309 308.807 149.786C309.237 149.263 309.894 148.955 310.578 148.955C316.465 148.955 329.621 148.955 329.621 148.955L337.439 156.371C337.439 156.371 356.683 156.371 364.153 156.371C364.851 156.371 365.521 156.693 365.95 157.242C366.379 157.792 366.54 158.516 366.366 159.2C364.851 165.275 361.324 179.37 360.09 184.278C359.835 185.298 358.923 186.008 357.877 186.008C350.756 186.008 324.35 186.008 317.068 186.008C315.982 186.008 315.043 185.244 314.829 184.171C313.635 178.136 309.773 158.852 308.338 151.677Z" fill="#FF9C00"/>
<mask id="mask13_372_1389" style="mask-type:luminance" maskUnits="userSpaceOnUse" x="308" y="148" width="59" height="39">
<path d="M308.338 151.677C308.204 151.006 308.378 150.309 308.807 149.786C309.237 149.263 309.894 148.955 310.578 148.955C316.465 148.955 329.621 148.955 329.621 148.955L337.439 156.371C337.439 156.371 356.683 156.371 364.153 156.371C364.851 156.371 365.521 156.693 365.95 157.242C366.379 157.792 366.54 158.516 366.366 159.2C364.851 165.275 361.324 179.37 360.09 184.278C359.835 185.298 358.923 186.008 357.877 186.008C350.756 186.008 324.35 186.008 317.068 186.008C315.982 186.008 315.043 185.244 314.829 184.171C313.635 178.136 309.773 158.852 308.338 151.677Z" fill="white"/>
</mask>
<g mask="url(#mask13_372_1389)">
<path fill-rule="evenodd" clip-rule="evenodd" d="M361.203 152.763C360.814 156.934 360.666 175.079 349.174 180.751C339.196 185.673 324.029 184.144 314.118 185.069C314.4 185.391 317.377 193.947 340.175 194.524C361.578 195.06 369.598 188.529 374.077 176.634C381.158 157.846 369.906 154.681 367.948 153.367" fill="#E88E00"/>
</g>
<path d="M308.338 151.677C308.204 151.006 308.378 150.309 308.807 149.786C309.237 149.263 309.894 148.955 310.578 148.955C316.465 148.955 329.621 148.955 329.621 148.955L337.439 156.371C337.439 156.371 356.683 156.371 364.153 156.371C364.851 156.371 365.521 156.693 365.95 157.242C366.379 157.792 366.54 158.516 366.366 159.2C364.851 165.275 361.324 179.37 360.09 184.278C359.835 185.298 358.923 186.008 357.877 186.008C350.756 186.008 324.35 186.008 317.068 186.008C315.982 186.008 315.043 185.244 314.829 184.171C313.635 178.136 309.773 158.852 308.338 151.677Z" stroke="#4676A1" stroke-width="5" stroke-miterlimit="10" stroke-linecap="round" stroke-linejoin="round"/>
<path d="M65.7389 527.632H630.261M254.145 548.432H441.868M228.853 548.432H181.741M514.259 548.432H467.147" stroke="#4676A1" stroke-width="50" stroke-miterlimit="10" stroke-linecap="round" stroke-linejoin="round"/>
<path fill-rule="evenodd" clip-rule="evenodd" d="M171.925 148.445C168.344 146.527 166.989 142.062 168.907 138.481C170.825 134.9 175.291 133.546 178.871 135.464C182.452 137.381 183.806 141.847 181.889 145.428C179.971 149.022 175.505 150.363 171.925 148.445Z" fill="#90BBE6"/>
<path fill-rule="evenodd" clip-rule="evenodd" d="M197.458 123.931C196.828 124.427 195.916 124.373 195.34 123.81C194.763 123.233 194.723 122.321 195.219 121.691C196.131 120.538 196.935 119.545 197.472 118.861C197.928 118.285 197.941 117.467 197.472 116.877C196.922 116.193 196.131 115.187 195.232 114.034C194.736 113.403 194.79 112.491 195.353 111.915C195.93 111.338 196.842 111.298 197.472 111.794C198.625 112.706 199.618 113.511 200.302 114.047C200.878 114.503 201.696 114.516 202.286 114.047C202.97 113.497 203.976 112.706 205.129 111.807C205.76 111.311 206.672 111.365 207.248 111.928C207.825 112.505 207.865 113.417 207.369 114.047C206.457 115.2 205.652 116.193 205.116 116.877C204.66 117.453 204.647 118.271 205.116 118.861C205.666 119.545 206.457 120.551 207.356 121.704C207.852 122.335 207.798 123.247 207.235 123.823C206.658 124.4 205.746 124.44 205.116 123.944C203.963 123.032 202.97 122.227 202.286 121.691C201.71 121.235 200.892 121.222 200.302 121.691C199.604 122.227 198.612 123.019 197.458 123.931Z" fill="#90BBE6"/>
<path fill-rule="evenodd" clip-rule="evenodd" d="M598.17 364.531C594.535 364.773 591.397 362.024 591.156 358.389C590.914 354.755 593.664 351.617 597.298 351.376C600.932 351.134 604.07 353.883 604.312 357.518C604.566 361.152 601.804 364.29 598.17 364.531Z" fill="#90BBE6"/>
<path fill-rule="evenodd" clip-rule="evenodd" d="M605.961 333.781C605.72 334.465 604.996 334.854 604.298 334.693C603.587 334.532 603.118 333.861 603.212 333.137C603.359 331.836 603.493 330.696 603.587 329.918C603.668 329.261 603.279 328.631 602.649 328.416C601.911 328.148 600.825 327.759 599.591 327.317C598.907 327.075 598.518 326.351 598.679 325.654C598.84 324.943 599.511 324.474 600.235 324.568C601.536 324.715 602.675 324.849 603.453 324.943C604.11 325.023 604.741 324.635 604.955 324.004C605.223 323.267 605.612 322.18 606.055 320.947C606.296 320.263 607.021 319.874 607.718 320.035C608.429 320.196 608.898 320.866 608.804 321.59C608.657 322.891 608.523 324.031 608.429 324.809C608.348 325.466 608.737 326.096 609.367 326.311C610.105 326.579 611.191 326.968 612.425 327.411C613.109 327.652 613.498 328.376 613.337 329.074C613.176 329.784 612.505 330.254 611.781 330.16C610.48 330.012 609.341 329.878 608.563 329.784C607.906 329.704 607.275 330.093 607.061 330.723C606.793 331.461 606.404 332.533 605.961 333.781Z" fill="#90BBE6"/>
<path fill-rule="evenodd" clip-rule="evenodd" d="M499.574 170.251C503.503 168.87 505.582 164.578 504.214 160.689C502.846 156.8 498.542 154.775 494.599 156.157C490.669 157.538 488.591 161.829 489.959 165.718C491.327 169.621 495.631 171.646 499.574 170.251Z" fill="#90BBE6" stroke="#357BAA" stroke-width="0.24" stroke-miterlimit="10" stroke-linecap="round" stroke-linejoin="round"/>
<path fill-rule="evenodd" clip-rule="evenodd" d="M477.621 141.753C478.184 142.357 479.109 142.437 479.78 141.941C480.451 141.445 480.638 140.546 480.236 139.836C479.498 138.548 478.841 137.422 478.399 136.644C478.023 135.987 478.157 135.169 478.707 134.659C479.364 134.042 480.33 133.157 481.429 132.138C482.033 131.575 482.127 130.649 481.644 129.992C481.148 129.335 480.236 129.147 479.525 129.563C478.224 130.314 477.084 130.958 476.293 131.4C475.636 131.776 474.805 131.655 474.282 131.105C473.665 130.448 472.78 129.509 471.76 128.423C471.197 127.82 470.272 127.739 469.601 128.235C468.931 128.731 468.743 129.63 469.145 130.341C469.883 131.628 470.54 132.755 470.983 133.532C471.358 134.19 471.224 135.008 470.674 135.517C470.017 136.134 469.051 137.019 467.952 138.038C467.348 138.602 467.254 139.527 467.737 140.184C468.233 140.841 469.145 141.029 469.856 140.627C471.157 139.876 472.297 139.232 473.088 138.789C473.745 138.414 474.577 138.535 475.1 139.085C475.703 139.728 476.588 140.667 477.621 141.753Z" fill="#90BBE6" stroke="#357BAA" stroke-width="0.24" stroke-miterlimit="10" stroke-linecap="round" stroke-linejoin="round"/>
<path fill-rule="evenodd" clip-rule="evenodd" d="M81.9926 363.123C77.4329 363.204 73.7987 366.959 73.8791 371.519C73.9596 376.078 77.7146 379.712 82.2742 379.632C86.8338 379.552 90.4681 375.797 90.3877 371.237C90.3072 366.691 86.5388 363.056 81.9926 363.123Z" fill="#90BBE6"/>
<path fill-rule="evenodd" clip-rule="evenodd" d="M94.8802 400.673C94.5048 399.842 93.566 399.44 92.7077 399.721C91.8494 400.003 91.3264 400.888 91.5008 401.773C91.8226 403.382 92.1042 404.79 92.3054 405.756C92.4663 406.574 92.0506 407.392 91.2996 407.727C90.4011 408.143 89.1003 408.733 87.5983 409.417C86.7668 409.793 86.3645 410.731 86.6461 411.59C86.9277 412.448 87.8128 412.971 88.6979 412.783C90.3072 412.461 91.7153 412.18 92.6809 411.979C93.4989 411.818 94.317 412.233 94.6523 412.984C95.068 413.883 95.6581 415.184 96.342 416.686C96.7175 417.517 97.6563 417.919 98.5145 417.638C99.3728 417.356 99.8958 416.471 99.7215 415.586C99.3996 413.977 99.118 412.569 98.9169 411.603C98.7559 410.785 99.1717 409.967 99.9227 409.632C100.821 409.216 102.122 408.626 103.624 407.942C104.455 407.566 104.858 406.628 104.576 405.769C104.295 404.911 103.409 404.388 102.524 404.562C100.915 404.884 99.5069 405.166 98.5414 405.367C97.7233 405.528 96.9053 405.112 96.57 404.361C96.1677 403.476 95.5642 402.175 94.8802 400.673Z" fill="#90BBE6"/>
</svg>
