<svg width="176" height="49" viewBox="0 0 176 49" fill="none" xmlns="http://www.w3.org/2000/svg">
<g filter="url(#filter0_d_2187_16271)">
<rect x="3.15625" y="2" width="170.203" height="43.731" rx="8.69241" fill="#E5F8F3"/>
<rect x="3.69953" y="2.54328" width="169.116" height="42.6445" rx="8.14913" stroke="#E5F8F3" stroke-width="1.08655"/>
<path d="M38.2822 32.7358V30.5182L20.5414 30.5182V32.7358L38.2822 32.7358ZM29.4118 28.3006L36.0646 21.6478H31.6294L31.6294 14.995H27.1942L27.1942 21.6478L22.759 21.6478L29.4118 28.3006Z" fill="black"/>
<path d="M48.0526 29.8655V19.4355H51.4686C52.5513 19.4355 53.4893 19.6548 54.2826 20.0935C55.0853 20.5228 55.7059 21.1295 56.1446 21.9135C56.5833 22.6975 56.8026 23.6075 56.8026 24.6435C56.8026 25.6701 56.5833 26.5801 56.1446 27.3735C55.7059 28.1575 55.0853 28.7688 54.2826 29.2075C53.4893 29.6461 52.5513 29.8655 51.4686 29.8655H48.0526ZM49.7046 28.3955H51.4966C52.2339 28.3955 52.8733 28.2415 53.4146 27.9335C53.9653 27.6255 54.3899 27.1915 54.6886 26.6315C54.9873 26.0715 55.1366 25.4088 55.1366 24.6435C55.1366 23.8781 54.9826 23.2201 54.6746 22.6695C54.3759 22.1095 53.9559 21.6755 53.4146 21.3675C52.8733 21.0595 52.2339 20.9055 51.4966 20.9055H49.7046V28.3955ZM61.9296 30.0335C61.2016 30.0335 60.5342 29.8608 59.9276 29.5155C59.3302 29.1701 58.8542 28.6988 58.4996 28.1015C58.1449 27.5041 57.9676 26.8275 57.9676 26.0715C57.9676 25.3061 58.1449 24.6295 58.4996 24.0415C58.8542 23.4441 59.3302 22.9775 59.9276 22.6415C60.5249 22.2961 61.1922 22.1235 61.9296 22.1235C62.6762 22.1235 63.3436 22.2961 63.9316 22.6415C64.5289 22.9775 65.0002 23.4441 65.3456 24.0415C65.7002 24.6295 65.8776 25.3061 65.8776 26.0715C65.8776 26.8368 65.7002 27.5181 65.3456 28.1155C64.9909 28.7128 64.5149 29.1841 63.9176 29.5295C63.3202 29.8655 62.6576 30.0335 61.9296 30.0335ZM61.9296 28.5635C62.3776 28.5635 62.7742 28.4561 63.1196 28.2415C63.4649 28.0268 63.7356 27.7328 63.9316 27.3595C64.1369 26.9768 64.2396 26.5475 64.2396 26.0715C64.2396 25.5955 64.1369 25.1708 63.9316 24.7975C63.7356 24.4241 63.4649 24.1301 63.1196 23.9155C62.7742 23.7008 62.3776 23.5935 61.9296 23.5935C61.4909 23.5935 61.0942 23.7008 60.7396 23.9155C60.3942 24.1301 60.1189 24.4241 59.9136 24.7975C59.7176 25.1708 59.6196 25.5955 59.6196 26.0715C59.6196 26.5475 59.7176 26.9768 59.9136 27.3595C60.1189 27.7328 60.3942 28.0268 60.7396 28.2415C61.0942 28.4561 61.4909 28.5635 61.9296 28.5635ZM69.1193 29.8655L66.5153 22.2915H68.1953L70.1833 28.3255H69.5953L71.6253 22.2915H73.0673L75.0833 28.3255H74.4953L76.4973 22.2915H78.1773L75.5593 29.8655H74.1313L72.0873 23.6915H72.6053L70.5613 29.8655H69.1193ZM79.2619 29.8655V22.2915H80.7739V23.7755L80.5919 23.5795C80.7786 23.1035 81.0772 22.7441 81.4879 22.5015C81.8986 22.2495 82.3746 22.1235 82.9159 22.1235C83.4759 22.1235 83.9706 22.2448 84.3999 22.4875C84.8292 22.7301 85.1652 23.0661 85.4079 23.4955C85.6506 23.9248 85.7719 24.4195 85.7719 24.9795V29.8655H84.2039V25.3995C84.2039 25.0168 84.1339 24.6948 83.9939 24.4335C83.8539 24.1628 83.6532 23.9575 83.3919 23.8175C83.1399 23.6681 82.8506 23.5935 82.5239 23.5935C82.1972 23.5935 81.9032 23.6681 81.6419 23.8175C81.3899 23.9575 81.1939 24.1628 81.0539 24.4335C80.9139 24.7041 80.8439 25.0261 80.8439 25.3995V29.8655H79.2619ZM87.465 29.8655V19.2675H89.047V29.8655H87.465ZM94.5507 30.0335C93.8227 30.0335 93.1553 29.8608 92.5487 29.5155C91.9513 29.1701 91.4753 28.6988 91.1207 28.1015C90.766 27.5041 90.5887 26.8275 90.5887 26.0715C90.5887 25.3061 90.766 24.6295 91.1207 24.0415C91.4753 23.4441 91.9513 22.9775 92.5487 22.6415C93.146 22.2961 93.8133 22.1235 94.5507 22.1235C95.2973 22.1235 95.9647 22.2961 96.5527 22.6415C97.15 22.9775 97.6213 23.4441 97.9667 24.0415C98.3213 24.6295 98.4987 25.3061 98.4987 26.0715C98.4987 26.8368 98.3213 27.5181 97.9667 28.1155C97.612 28.7128 97.136 29.1841 96.5387 29.5295C95.9413 29.8655 95.2787 30.0335 94.5507 30.0335ZM94.5507 28.5635C94.9987 28.5635 95.3953 28.4561 95.7407 28.2415C96.086 28.0268 96.3567 27.7328 96.5527 27.3595C96.758 26.9768 96.8607 26.5475 96.8607 26.0715C96.8607 25.5955 96.758 25.1708 96.5527 24.7975C96.3567 24.4241 96.086 24.1301 95.7407 23.9155C95.3953 23.7008 94.9987 23.5935 94.5507 23.5935C94.112 23.5935 93.7153 23.7008 93.3607 23.9155C93.0153 24.1301 92.74 24.4241 92.5347 24.7975C92.3387 25.1708 92.2407 25.5955 92.2407 26.0715C92.2407 26.5475 92.3387 26.9768 92.5347 27.3595C92.74 27.7328 93.0153 28.0268 93.3607 28.2415C93.7153 28.4561 94.112 28.5635 94.5507 28.5635ZM102.311 30.0335C101.798 30.0335 101.345 29.9448 100.953 29.7675C100.57 29.5808 100.272 29.3288 100.057 29.0115C99.8425 28.6848 99.7351 28.3021 99.7351 27.8635C99.7351 27.4528 99.8238 27.0841 100.001 26.7575C100.188 26.4308 100.472 26.1555 100.855 25.9315C101.238 25.7075 101.718 25.5488 102.297 25.4555L104.929 25.0215V26.2675L102.605 26.6735C102.185 26.7481 101.877 26.8835 101.681 27.0795C101.485 27.2661 101.387 27.5088 101.387 27.8075C101.387 28.0968 101.494 28.3348 101.709 28.5215C101.933 28.6988 102.218 28.7875 102.563 28.7875C102.992 28.7875 103.366 28.6941 103.683 28.5075C104.01 28.3208 104.262 28.0735 104.439 27.7655C104.616 27.4481 104.705 27.0981 104.705 26.7155V24.7695C104.705 24.3961 104.565 24.0928 104.285 23.8595C104.014 23.6168 103.65 23.4955 103.193 23.4955C102.773 23.4955 102.404 23.6075 102.087 23.8315C101.779 24.0461 101.55 24.3261 101.401 24.6715L100.085 24.0135C100.225 23.6401 100.454 23.3135 100.771 23.0335C101.088 22.7441 101.457 22.5201 101.877 22.3615C102.306 22.2028 102.759 22.1235 103.235 22.1235C103.832 22.1235 104.36 22.2355 104.817 22.4595C105.284 22.6835 105.643 22.9961 105.895 23.3975C106.156 23.7895 106.287 24.2468 106.287 24.7695V29.8655H104.775V28.4935L105.097 28.5355C104.92 28.8435 104.691 29.1095 104.411 29.3335C104.14 29.5575 103.828 29.7301 103.473 29.8515C103.128 29.9728 102.74 30.0335 102.311 30.0335ZM111.637 30.0335C110.909 30.0335 110.256 29.8608 109.677 29.5155C109.108 29.1608 108.655 28.6848 108.319 28.0875C107.992 27.4901 107.829 26.8181 107.829 26.0715C107.829 25.3248 107.997 24.6528 108.333 24.0555C108.669 23.4581 109.122 22.9868 109.691 22.6415C110.26 22.2961 110.904 22.1235 111.623 22.1235C112.23 22.1235 112.766 22.2448 113.233 22.4875C113.7 22.7301 114.068 23.0661 114.339 23.4955L114.101 23.8595V19.2675H115.669V29.8655H114.171V28.3255L114.353 28.6195C114.092 29.0768 113.718 29.4268 113.233 29.6695C112.748 29.9121 112.216 30.0335 111.637 30.0335ZM111.791 28.5635C112.23 28.5635 112.622 28.4561 112.967 28.2415C113.322 28.0268 113.597 27.7328 113.793 27.3595C113.998 26.9768 114.101 26.5475 114.101 26.0715C114.101 25.5955 113.998 25.1708 113.793 24.7975C113.597 24.4241 113.322 24.1301 112.967 23.9155C112.622 23.7008 112.23 23.5935 111.791 23.5935C111.352 23.5935 110.956 23.7008 110.601 23.9155C110.246 24.1301 109.971 24.4241 109.775 24.7975C109.579 25.1708 109.481 25.5955 109.481 26.0715C109.481 26.5475 109.579 26.9768 109.775 27.3595C109.971 27.7328 110.242 28.0268 110.587 28.2415C110.942 28.4561 111.343 28.5635 111.791 28.5635ZM120.117 29.8655V19.4355H126.991V20.9055H121.769V23.9015H126.711V25.3715H121.769V28.3955H126.991V29.8655H120.117ZM127.615 29.8655L130.261 26.0715L127.615 22.2915H129.477L131.647 25.4555H130.751L132.921 22.2915H134.783L132.123 26.0715L134.769 29.8655H132.907L130.765 26.6875H131.633L129.477 29.8655H127.615ZM139.188 30.0335C138.432 30.0335 137.76 29.8608 137.172 29.5155C136.593 29.1608 136.131 28.6848 135.786 28.0875C135.45 27.4901 135.282 26.8135 135.282 26.0575C135.282 25.3108 135.45 24.6388 135.786 24.0415C136.122 23.4441 136.584 22.9775 137.172 22.6415C137.76 22.2961 138.432 22.1235 139.188 22.1235C139.701 22.1235 140.182 22.2168 140.63 22.4035C141.078 22.5808 141.465 22.8281 141.792 23.1455C142.128 23.4628 142.375 23.8315 142.534 24.2515L141.148 24.8955C140.989 24.5035 140.733 24.1908 140.378 23.9575C140.033 23.7148 139.636 23.5935 139.188 23.5935C138.759 23.5935 138.371 23.7008 138.026 23.9155C137.69 24.1208 137.424 24.4148 137.228 24.7975C137.032 25.1708 136.934 25.5955 136.934 26.0715C136.934 26.5475 137.032 26.9768 137.228 27.3595C137.424 27.7328 137.69 28.0268 138.026 28.2415C138.371 28.4561 138.759 28.5635 139.188 28.5635C139.645 28.5635 140.042 28.4468 140.378 28.2135C140.723 27.9708 140.98 27.6488 141.148 27.2475L142.534 27.9055C142.385 28.3068 142.142 28.6708 141.806 28.9975C141.479 29.3148 141.092 29.5668 140.644 29.7535C140.196 29.9401 139.711 30.0335 139.188 30.0335ZM147.636 30.0335C146.88 30.0335 146.208 29.8608 145.62 29.5155C145.042 29.1608 144.589 28.6848 144.262 28.0875C143.936 27.4808 143.772 26.8041 143.772 26.0575C143.772 25.2921 143.936 24.6155 144.262 24.0275C144.598 23.4395 145.046 22.9775 145.606 22.6415C146.166 22.2961 146.801 22.1235 147.51 22.1235C148.08 22.1235 148.588 22.2215 149.036 22.4175C149.484 22.6135 149.862 22.8841 150.17 23.2295C150.478 23.5655 150.712 23.9528 150.87 24.3915C151.038 24.8301 151.122 25.2968 151.122 25.7915C151.122 25.9128 151.118 26.0388 151.108 26.1695C151.099 26.3001 151.08 26.4215 151.052 26.5335H145.018V25.2735H150.156L149.4 25.8475C149.494 25.3901 149.461 24.9841 149.302 24.6295C149.153 24.2655 148.92 23.9808 148.602 23.7755C148.294 23.5608 147.93 23.4535 147.51 23.4535C147.09 23.4535 146.717 23.5608 146.39 23.7755C146.064 23.9808 145.812 24.2795 145.634 24.6715C145.457 25.0541 145.387 25.5208 145.424 26.0715C145.378 26.5848 145.448 27.0328 145.634 27.4155C145.83 27.7981 146.101 28.0968 146.446 28.3115C146.801 28.5261 147.202 28.6335 147.65 28.6335C148.108 28.6335 148.495 28.5308 148.812 28.3255C149.139 28.1201 149.396 27.8541 149.582 27.5275L150.87 28.1575C150.721 28.5121 150.488 28.8341 150.17 29.1235C149.862 29.4035 149.489 29.6275 149.05 29.7955C148.621 29.9541 148.15 30.0335 147.636 30.0335ZM152.666 29.8655V19.2675H154.248V29.8655H152.666Z" fill="black"/>
</g>
<defs>
<filter id="filter0_d_2187_16271" x="0.983148" y="0.913449" width="174.549" height="48.0772" filterUnits="userSpaceOnUse" color-interpolation-filters="sRGB">
<feFlood flood-opacity="0" result="BackgroundImageFix"/>
<feColorMatrix in="SourceAlpha" type="matrix" values="0 0 0 0 0 0 0 0 0 0 0 0 0 0 0 0 0 0 127 0" result="hardAlpha"/>
<feOffset dy="1.08655"/>
<feGaussianBlur stdDeviation="1.08655"/>
<feColorMatrix type="matrix" values="0 0 0 0 0.0627451 0 0 0 0 0.0941176 0 0 0 0 0.156863 0 0 0 0.05 0"/>
<feBlend mode="normal" in2="BackgroundImageFix" result="effect1_dropShadow_2187_16271"/>
<feBlend mode="normal" in="SourceGraphic" in2="effect1_dropShadow_2187_16271" result="shape"/>
</filter>
</defs>
</svg>
