<svg width="22" height="23" viewBox="0 0 22 23" fill="none" xmlns="http://www.w3.org/2000/svg">
<path fill-rule="evenodd" clip-rule="evenodd" d="M7.68182 0.956787C5.19683 0.956787 3.19719 1.44766 1.84403 2.80082C0.490874 4.15397 0 6.15361 0 8.63861V14.3659C0 16.8509 0.490874 18.8505 1.84403 20.2037C3.19719 21.5568 5.19683 22.0477 7.68182 22.0477H13.4091C15.8941 22.0477 17.8937 21.5568 19.2469 20.2037C20.6 18.8505 21.0909 16.8509 21.0909 14.3659V12.4568C21.0909 11.9045 20.6432 11.4568 20.0909 11.4568C19.5386 11.4568 19.0909 11.9045 19.0909 12.4568V14.3659C19.0909 16.6536 18.6272 17.9949 17.8327 18.7895C17.0381 19.584 15.6968 20.0477 13.4091 20.0477H7.68182C5.39408 20.0477 4.05282 19.584 3.25824 18.7895C2.46367 17.9949 2 16.6536 2 14.3659V8.63861C2 6.35087 2.46367 5.0096 3.25824 4.21503C4.05282 3.42046 5.39408 2.95679 7.68182 2.95679H9.59091C10.1432 2.95679 10.5909 2.50907 10.5909 1.95679C10.5909 1.4045 10.1432 0.956787 9.59091 0.956787H7.68182ZM14.509 1.95679C14.509 1.4045 14.9568 0.956787 15.509 0.956787H20.0909C20.6431 0.956787 21.0909 1.4045 21.0909 1.95679V6.53861C21.0909 7.09089 20.6431 7.53861 20.0909 7.53861C19.5386 7.53861 19.0909 7.09089 19.0909 6.53861V4.37104L12.2071 11.2548C11.8166 11.6453 11.1834 11.6453 10.7929 11.2548C10.4024 10.8643 10.4024 10.2311 10.7929 9.84058L17.6767 2.95679H15.509C14.9568 2.95679 14.509 2.50907 14.509 1.95679Z" fill="white"/>
</svg>
