<svg width="18" height="21" viewBox="0 0 18 21" fill="none" xmlns="http://www.w3.org/2000/svg">
<path d="M2.87295 1H15.257C16.2904 1 17.13 1.8396 17.13 2.87295V4.93966C17.13 5.69853 16.6618 6.63501 16.1935 7.10324L12.157 10.6715C11.5919 11.1398 11.2205 12.0763 11.2205 12.8351V16.8717C11.2205 17.4368 10.8492 18.1795 10.3809 18.4701L9.07307 19.2936C7.84597 20.0525 6.16677 19.1967 6.16677 17.6951V12.7221C6.16677 12.0601 5.7954 11.2205 5.4079 10.7523L1.8396 6.99022C1.37136 6.53813 1 5.68238 1 5.11727V2.96983C1 1.8396 1.8396 1 2.87295 1Z" stroke="#86CD57" stroke-width="1.5" stroke-miterlimit="10" stroke-linecap="round" stroke-linejoin="round"/>
</svg>
