<svg width="22" height="23" viewBox="0 0 22 23" fill="none" xmlns="http://www.w3.org/2000/svg">
<path fill-rule="evenodd" clip-rule="evenodd" d="M0 11.5022C0 5.68087 4.72408 0.956787 10.5455 0.956787C11.0977 0.956787 11.5455 1.4045 11.5455 1.95679C11.5455 2.50907 11.0977 2.95679 10.5455 2.95679C5.82865 2.95679 2 6.78544 2 11.5022C2 16.219 5.82865 20.0477 10.5455 20.0477C15.2623 20.0477 19.0909 16.219 19.0909 11.5022C19.0909 10.95 19.5386 10.5022 20.0909 10.5022C20.6432 10.5022 21.0909 10.95 21.0909 11.5022C21.0909 17.3236 16.3668 22.0477 10.5455 22.0477C4.72408 22.0477 0 17.3236 0 11.5022ZM12.25 8.73708V5.93723C12.25 5.52301 11.9142 5.18723 11.5 5.18723C11.0858 5.18723 10.75 5.52301 10.75 5.93723V10.5477C10.75 10.9619 11.0858 11.2977 11.5 11.2977H16.1105C16.5247 11.2977 16.8605 10.9619 16.8605 10.5477C16.8605 10.1335 16.5247 9.79768 16.1105 9.79768H13.3107L20.6213 2.48712C20.9142 2.19422 20.9142 1.71935 20.6213 1.42646C20.3284 1.13356 19.8535 1.13356 19.5606 1.42646L12.25 8.73708Z" fill="white"/>
</svg>
