<svg width="32" height="32" viewBox="0 0 32 32" fill="none" xmlns="http://www.w3.org/2000/svg">
<path d="M8.70769 9.37944H17.255C17.9264 12.7979 20.9454 15.3848 24.5576 15.3848C28.6613 15.3848 32 12.0462 32 7.94244C32 3.83862 28.6613 0.5 24.5576 0.5C20.9453 0.5 17.9263 3.08694 17.2549 6.50544H8.70769C8.109 4.74056 6.43969 3.46994 4.47244 3.46994C2.00237 3.46994 0 5.47231 0 7.94244C0 9.90963 1.27063 11.5789 3.03544 12.1776V23.241C1.27063 23.8396 0 25.5089 0 27.4762C0 29.9462 2.00237 31.9486 4.47244 31.9486C6.43962 31.9486 8.10894 30.678 8.70763 28.9131H15.9717C16.5704 30.678 18.2397 31.9486 20.2069 31.9486C22.677 31.9486 24.6793 29.9461 24.6793 27.4761C24.6793 25.0061 22.6769 23.0037 20.2069 23.0037C18.2397 23.0037 16.5704 24.2742 15.9718 26.0391H8.70769C8.262 24.7254 7.22319 23.6866 5.9095 23.241V12.1776C7.22312 11.7319 8.262 10.6931 8.70769 9.37944ZM24.5576 4.0925C26.6804 4.0925 28.4075 5.81956 28.4075 7.94244C28.4075 10.0652 26.6804 11.7924 24.5576 11.7924C22.4347 11.7924 20.7076 10.0654 20.7076 7.94244C20.7077 5.81956 22.4347 4.0925 24.5576 4.0925Z" fill="#86CD57"/>
</svg>
