<svg width="19" height="18" viewBox="0 0 19 18" fill="none" xmlns="http://www.w3.org/2000/svg">
<path fill-rule="evenodd" clip-rule="evenodd" d="M1.5 9.00006C1.5 6.61706 2.34817 4.76226 3.67597 3.50097C5.0097 2.23404 6.87482 1.52148 8.97857 1.52148C9.39278 1.52148 9.72857 1.1857 9.72857 0.771484C9.72857 0.357271 9.39278 0.0214844 8.97857 0.0214844C6.53604 0.0214844 4.28687 0.851789 2.64289 2.41343C0.992969 3.98071 0 6.24019 0 9.00006C0 11.7599 0.992969 14.0194 2.64289 15.5867C4.28687 17.1483 6.53604 17.9786 8.97857 17.9786C9.39278 17.9786 9.72857 17.6428 9.72857 17.2286C9.72857 16.8144 9.39278 16.4786 8.97857 16.4786C6.87482 16.4786 5.0097 15.7661 3.67597 14.4991C2.34817 13.2379 1.5 11.3831 1.5 9.00006ZM14.2902 5.8983C14.5831 5.6054 15.058 5.6054 15.3509 5.8983L17.984 8.53144C18.2769 8.82433 18.2769 9.29921 17.984 9.5921L15.3509 12.2252C15.058 12.5181 14.5831 12.5181 14.2902 12.2252C13.9973 11.9323 13.9973 11.4575 14.2902 11.1646L15.643 9.81177H6.92143C6.50721 9.81177 6.17143 9.47598 6.17143 9.06177C6.17143 8.64755 6.50721 8.31177 6.92143 8.31177H15.643L14.2902 6.95896C13.9973 6.66606 13.9973 6.19119 14.2902 5.8983Z" fill="#161715"/>
</svg>
