<svg width="24" height="15" viewBox="0 0 24 15" fill="none" xmlns="http://www.w3.org/2000/svg">
<path fill-rule="evenodd" clip-rule="evenodd" d="M0 1C0 0.447715 0.447715 0 1 0H22.9012C23.4535 0 23.9012 0.447715 23.9012 1C23.9012 1.55228 23.4535 2 22.9012 2H1C0.447715 2 0 1.55228 0 1ZM0 7.08366C0 6.53138 0.447715 6.08366 1 6.08366H22.9012C23.4535 6.08366 23.9012 6.53138 23.9012 7.08366C23.9012 7.63595 23.4535 8.08366 22.9012 8.08366H1C0.447715 8.08366 0 7.63595 0 7.08366ZM1 12.1673C0.447715 12.1673 0 12.615 0 13.1673C0 13.7196 0.447715 14.1673 1 14.1673H22.9012C23.4535 14.1673 23.9012 13.7196 23.9012 13.1673C23.9012 12.615 23.4535 12.1673 22.9012 12.1673H1Z" fill="#161715"/>
</svg>
