<svg width="22" height="22" viewBox="0 0 22 22" fill="none" xmlns="http://www.w3.org/2000/svg">
<path fill-rule="evenodd" clip-rule="evenodd" d="M2 10.5C2 5.80558 5.80558 2 10.5 2C15.1944 2 19 5.80558 19 10.5C19 15.1944 15.1944 19 10.5 19C5.80558 19 2 15.1944 2 10.5ZM10.5 0C4.70101 0 0 4.70101 0 10.5C0 16.299 4.70101 21 10.5 21C16.299 21 21 16.299 21 10.5C21 4.70101 16.299 0 10.5 0ZM21.7071 20.2929L19.7071 18.2929C19.3166 17.9024 18.6834 17.9024 18.2929 18.2929C17.9024 18.6834 17.9024 19.3166 18.2929 19.7071L20.2929 21.7071C20.6834 22.0976 21.3166 22.0976 21.7071 21.7071C22.0976 21.3166 22.0976 20.6834 21.7071 20.2929Z" fill="#161715"/>
</svg>
