<svg width="20" height="20" viewBox="0 0 20 20" fill="none" xmlns="http://www.w3.org/2000/svg">
<path fill-rule="evenodd" clip-rule="evenodd" d="M6.4065 2.50976C6.73296 2.31555 7.17765 2.42166 7.3904 2.77546L7.48334 2.93598L7.48417 2.93742C7.96165 3.76955 8.6959 4.35301 9.58366 4.35301C10.4708 4.35301 11.207 3.77025 11.6888 2.93908L11.689 2.93876L11.7836 2.77544C11.9963 2.42166 12.441 2.31555 12.7674 2.50976L12.7674 2.50986L12.7784 2.51616L14.3064 3.39058L14.3068 3.39082C14.7478 3.64281 14.9001 4.21486 14.6481 4.65165C14.1663 5.48302 14.0276 6.4114 14.4707 7.18039C14.9139 7.94942 15.7866 8.29454 16.7458 8.29454C17.2527 8.29454 17.6739 8.71209 17.6739 9.22273V10.7773C17.6739 11.2842 17.2564 11.7054 16.7458 11.7054C15.7866 11.7054 14.9139 12.0506 14.4707 12.8196C14.0279 13.588 14.1661 14.5156 14.647 15.3465C14.9017 15.7942 14.7465 16.3579 14.3068 16.6092L14.3064 16.6094L12.7784 17.4838L12.7783 17.4837L12.7674 17.4902C12.441 17.6844 11.9963 17.5783 11.7835 17.2245L11.6906 17.064L11.6898 17.0626C11.2123 16.2304 10.478 15.647 9.59028 15.647C8.70318 15.647 7.96689 16.2297 7.48513 17.0609L7.48494 17.0612L7.3904 17.2245C7.17764 17.5783 6.73295 17.6844 6.4065 17.4902L6.40656 17.4901L6.39554 17.4838L4.86751 16.6094L4.86711 16.6092C4.42607 16.3571 4.27379 15.785 4.52596 15.3482C5.00762 14.5169 5.14632 13.5885 4.7032 12.8196C4.26003 12.0506 3.38732 11.7054 2.42819 11.7054C1.91754 11.7054 1.5 11.2842 1.5 10.7773V9.22273C1.5 8.71579 1.91754 8.29454 2.42819 8.29454C3.38732 8.29454 4.26003 7.94942 4.7032 7.18039C5.14634 6.4114 5.00761 5.48302 4.52589 4.65165C4.27382 4.21487 4.42611 3.64281 4.86711 3.39082L4.86751 3.39058L6.39554 2.51616L6.3956 2.51625L6.4065 2.50976ZM4.52589 4.65165C4.52579 4.65149 4.5257 4.65132 4.52561 4.65116L3.87672 5.02726L4.52612 4.65206C4.52605 4.65192 4.52597 4.65179 4.52589 4.65165ZM8.68141 2.01169C8.06431 0.974431 6.71276 0.586646 5.64557 1.21709L4.1229 2.08845L4.12274 2.08854L4.12249 2.08868C2.95642 2.75531 2.56121 4.24958 3.22733 5.40247L3.22784 5.40337C3.54966 5.95859 3.48586 6.28863 3.40355 6.43145C3.32118 6.57438 3.06774 6.79454 2.42819 6.79454C1.08399 6.79454 0 7.8925 0 9.22273V10.7773C0 12.1075 1.08399 13.2054 2.42819 13.2054C3.06774 13.2054 3.32118 13.4256 3.40355 13.5685C3.48586 13.7114 3.54966 14.0414 3.22784 14.5966L3.22733 14.5975C2.56121 15.7504 2.95642 17.2447 4.12249 17.9113L4.1229 17.9115L5.64556 18.7829C6.71274 19.4133 8.0643 19.0256 8.68141 17.9883L8.68146 17.9883L8.68593 17.9806L8.7829 17.8131C9.1049 17.2576 9.4241 17.147 9.59028 17.147C9.7553 17.147 10.0718 17.2562 10.3893 17.81L10.3909 17.8128L10.488 17.9806L10.488 17.9806L10.4925 17.9883C11.1096 19.0256 12.4612 19.4133 13.5284 18.7829L15.051 17.9115L15.0514 17.9113C16.2184 17.2442 16.6109 15.76 15.9484 14.6006L15.9484 14.6006L15.9461 14.5966C15.6243 14.0414 15.6881 13.7114 15.7704 13.5685C15.8528 13.4256 16.1062 13.2054 16.7458 13.2054C18.09 13.2054 19.1739 12.1075 19.1739 10.7773V9.22273C19.1739 7.87853 18.076 6.79454 16.7458 6.79454C16.1062 6.79454 15.8528 6.57438 15.7704 6.43145C15.6881 6.28863 15.6243 5.95859 15.9461 5.40337L15.9466 5.40247C16.6127 4.24959 16.2175 2.75531 15.0514 2.08868L15.0513 2.0886L15.051 2.08845L13.5284 1.21709C12.4612 0.586649 11.1096 0.974435 10.4925 2.01169L10.4925 2.01167L10.488 2.01938L10.391 2.18688L10.3909 2.1872C10.0689 2.74247 9.7498 2.85301 9.58366 2.85301C9.41864 2.85301 9.10216 2.7438 8.78469 2.18999L8.78308 2.18721L8.68593 2.01939L8.68597 2.01936L8.68141 2.01169ZM7.68279 9.99999C7.68279 8.95078 8.53334 8.10023 9.58255 8.10023C10.6318 8.10023 11.4823 8.95078 11.4823 9.99999C11.4823 11.0492 10.6318 11.8998 9.58255 11.8998C8.53334 11.8998 7.68279 11.0492 7.68279 9.99999ZM9.58255 6.60023C7.70491 6.60023 6.18279 8.12235 6.18279 9.99999C6.18279 11.8776 7.70491 13.3998 9.58255 13.3998C11.4602 13.3998 12.9823 11.8776 12.9823 9.99999C12.9823 8.12235 11.4602 6.60023 9.58255 6.60023Z" fill="#161715"/>
</svg>
