<svg width="29" height="27" viewBox="0 0 29 27" fill="none" xmlns="http://www.w3.org/2000/svg">
<path d="M10.4606 1.90194C10.9858 1.90194 11.4116 2.3277 11.4116 2.8529C11.4116 3.31975 11.0752 3.70803 10.6316 3.78855L10.4606 3.80387H4.75484C3.2719 3.80387 2.05324 4.9353 1.91499 6.38202L1.90193 6.65677V21.8723C1.90193 23.3551 3.03337 24.5738 4.48008 24.7121L4.75484 24.7252H19.9703C21.4532 24.7252 22.6719 23.5937 22.8102 22.147L22.8232 21.8723V19.9703C22.8232 19.4452 23.2491 19.0194 23.7742 19.0194C24.241 19.0194 24.6293 19.3558 24.7098 19.7994L24.7252 19.9703V21.8723C24.7252 24.3932 22.7632 26.456 20.2829 26.617L19.9703 26.6271H4.75484C2.23386 26.6271 0.171101 24.6652 0.0101139 22.1849L0 21.8723V6.65677C0 4.13579 1.96192 2.07304 4.44221 1.91205L4.75484 1.90194H10.4606ZM19.5291 0.206628L19.6464 0.30745L28.1996 8.71625C28.5988 9.10867 28.6352 9.73901 28.3086 10.1747L28.1998 10.2992L19.6466 18.7107C19.0041 19.3425 17.9598 18.9368 17.8457 18.0758L17.8356 17.9193V13.9338L17.3455 13.9779C13.9214 14.3438 10.6397 15.9245 7.47957 18.7462C6.7389 19.4077 5.59296 18.7824 5.71478 17.7833C6.66331 10.004 10.6326 5.71621 17.4084 5.17836L17.8356 5.14962V1.09898C17.8356 0.186487 18.844 -0.304992 19.5291 0.206628Z" fill="#212121"/>
</svg>
