<svg width="155" height="49" viewBox="0 0 155 49" fill="none" xmlns="http://www.w3.org/2000/svg">
<g filter="url(#filter0_d_2162_16923)">
<rect x="3.15625" y="2" width="149.203" height="43.731" rx="8.69241" fill="#E5F8F3"/>
<rect x="3.69953" y="2.54328" width="148.116" height="42.6445" rx="8.14913" stroke="#E5F8F3" stroke-width="1.08655"/>
<path d="M20.541 14.9951V17.2127H38.2818V14.9951H20.541ZM29.4114 19.4303L22.7586 26.0831H27.1938V32.7359H31.629V26.0831H36.0642L29.4114 19.4303Z" fill="black"/>
<path d="M51.9586 30.0335C51.1839 30.0335 50.4933 29.8701 49.8866 29.5435C49.2893 29.2168 48.8179 28.7688 48.4726 28.1995C48.1366 27.6301 47.9686 26.9815 47.9686 26.2535V19.4355H49.6206V26.1835C49.6206 26.6408 49.7186 27.0468 49.9146 27.4015C50.1199 27.7561 50.3953 28.0315 50.7406 28.2275C51.0953 28.4235 51.5013 28.5215 51.9586 28.5215C52.4253 28.5215 52.8313 28.4235 53.1766 28.2275C53.5313 28.0315 53.8066 27.7561 54.0026 27.4015C54.2079 27.0468 54.3106 26.6408 54.3106 26.1835V19.4355H55.9486V26.2535C55.9486 26.9815 55.7806 27.6301 55.4446 28.1995C55.1086 28.7688 54.6373 29.2168 54.0306 29.5435C53.4333 29.8701 52.7426 30.0335 51.9586 30.0335ZM57.8654 32.6655V22.2915H59.3774V23.8595L59.1954 23.4955C59.4754 23.0661 59.8487 22.7301 60.3154 22.4875C60.7821 22.2448 61.3141 22.1235 61.9114 22.1235C62.6301 22.1235 63.2741 22.2961 63.8434 22.6415C64.4221 22.9868 64.8747 23.4581 65.2014 24.0555C65.5374 24.6528 65.7054 25.3248 65.7054 26.0715C65.7054 26.8181 65.5374 27.4901 65.2014 28.0875C64.8747 28.6848 64.4267 29.1608 63.8574 29.5155C63.2881 29.8608 62.6394 30.0335 61.9114 30.0335C61.3234 30.0335 60.7867 29.9121 60.3014 29.6695C59.8254 29.4268 59.4567 29.0768 59.1954 28.6195L59.4474 28.3255V32.6655H57.8654ZM61.7574 28.5635C62.2054 28.5635 62.6021 28.4561 62.9474 28.2415C63.2927 28.0268 63.5634 27.7328 63.7594 27.3595C63.9647 26.9768 64.0674 26.5475 64.0674 26.0715C64.0674 25.5955 63.9647 25.1708 63.7594 24.7975C63.5634 24.4241 63.2927 24.1301 62.9474 23.9155C62.6021 23.7008 62.2054 23.5935 61.7574 23.5935C61.3187 23.5935 60.9221 23.7008 60.5674 23.9155C60.2221 24.1301 59.9467 24.4241 59.7414 24.7975C59.5454 25.1708 59.4474 25.5955 59.4474 26.0715C59.4474 26.5475 59.5454 26.9768 59.7414 27.3595C59.9467 27.7328 60.2221 28.0268 60.5674 28.2415C60.9221 28.4561 61.3187 28.5635 61.7574 28.5635ZM67.2443 29.8655V19.2675H68.8263V29.8655H67.2443ZM74.33 30.0335C73.602 30.0335 72.9346 29.8608 72.328 29.5155C71.7306 29.1701 71.2546 28.6988 70.9 28.1015C70.5453 27.5041 70.368 26.8275 70.368 26.0715C70.368 25.3061 70.5453 24.6295 70.9 24.0415C71.2546 23.4441 71.7306 22.9775 72.328 22.6415C72.9253 22.2961 73.5926 22.1235 74.33 22.1235C75.0766 22.1235 75.744 22.2961 76.332 22.6415C76.9293 22.9775 77.4006 23.4441 77.746 24.0415C78.1006 24.6295 78.278 25.3061 78.278 26.0715C78.278 26.8368 78.1006 27.5181 77.746 28.1155C77.3913 28.7128 76.9153 29.1841 76.318 29.5295C75.7206 29.8655 75.058 30.0335 74.33 30.0335ZM74.33 28.5635C74.778 28.5635 75.1746 28.4561 75.52 28.2415C75.8653 28.0268 76.136 27.7328 76.332 27.3595C76.5373 26.9768 76.64 26.5475 76.64 26.0715C76.64 25.5955 76.5373 25.1708 76.332 24.7975C76.136 24.4241 75.8653 24.1301 75.52 23.9155C75.1746 23.7008 74.778 23.5935 74.33 23.5935C73.8913 23.5935 73.4946 23.7008 73.14 23.9155C72.7946 24.1301 72.5193 24.4241 72.314 24.7975C72.118 25.1708 72.02 25.5955 72.02 26.0715C72.02 26.5475 72.118 26.9768 72.314 27.3595C72.5193 27.7328 72.7946 28.0268 73.14 28.2415C73.4946 28.4561 73.8913 28.5635 74.33 28.5635ZM82.0904 30.0335C81.5771 30.0335 81.1244 29.9448 80.7324 29.7675C80.3498 29.5808 80.0511 29.3288 79.8364 29.0115C79.6218 28.6848 79.5144 28.3021 79.5144 27.8635C79.5144 27.4528 79.6031 27.0841 79.7804 26.7575C79.9671 26.4308 80.2518 26.1555 80.6344 25.9315C81.0171 25.7075 81.4978 25.5488 82.0764 25.4555L84.7084 25.0215V26.2675L82.3844 26.6735C81.9644 26.7481 81.6564 26.8835 81.4604 27.0795C81.2644 27.2661 81.1664 27.5088 81.1664 27.8075C81.1664 28.0968 81.2738 28.3348 81.4884 28.5215C81.7124 28.6988 81.9971 28.7875 82.3424 28.7875C82.7718 28.7875 83.1451 28.6941 83.4624 28.5075C83.7891 28.3208 84.0411 28.0735 84.2184 27.7655C84.3958 27.4481 84.4844 27.0981 84.4844 26.7155V24.7695C84.4844 24.3961 84.3444 24.0928 84.0644 23.8595C83.7938 23.6168 83.4298 23.4955 82.9724 23.4955C82.5524 23.4955 82.1838 23.6075 81.8664 23.8315C81.5584 24.0461 81.3298 24.3261 81.1804 24.6715L79.8644 24.0135C80.0044 23.6401 80.2331 23.3135 80.5504 23.0335C80.8678 22.7441 81.2364 22.5201 81.6564 22.3615C82.0858 22.2028 82.5384 22.1235 83.0144 22.1235C83.6118 22.1235 84.1391 22.2355 84.5964 22.4595C85.0631 22.6835 85.4224 22.9961 85.6744 23.3975C85.9358 23.7895 86.0664 24.2468 86.0664 24.7695V29.8655H84.5544V28.4935L84.8764 28.5355C84.6991 28.8435 84.4704 29.1095 84.1904 29.3335C83.9198 29.5575 83.6071 29.7301 83.2524 29.8515C82.9071 29.9728 82.5198 30.0335 82.0904 30.0335ZM91.4162 30.0335C90.6882 30.0335 90.0349 29.8608 89.4562 29.5155C88.8869 29.1608 88.4342 28.6848 88.0982 28.0875C87.7715 27.4901 87.6082 26.8181 87.6082 26.0715C87.6082 25.3248 87.7762 24.6528 88.1122 24.0555C88.4482 23.4581 88.9009 22.9868 89.4702 22.6415C90.0395 22.2961 90.6835 22.1235 91.4022 22.1235C92.0089 22.1235 92.5455 22.2448 93.0122 22.4875C93.4789 22.7301 93.8475 23.0661 94.1182 23.4955L93.8802 23.8595V19.2675H95.4482V29.8655H93.9502V28.3255L94.1322 28.6195C93.8709 29.0768 93.4975 29.4268 93.0122 29.6695C92.5269 29.9121 91.9949 30.0335 91.4162 30.0335ZM91.5702 28.5635C92.0089 28.5635 92.4009 28.4561 92.7462 28.2415C93.1009 28.0268 93.3762 27.7328 93.5722 27.3595C93.7775 26.9768 93.8802 26.5475 93.8802 26.0715C93.8802 25.5955 93.7775 25.1708 93.5722 24.7975C93.3762 24.4241 93.1009 24.1301 92.7462 23.9155C92.4009 23.7008 92.0089 23.5935 91.5702 23.5935C91.1315 23.5935 90.7349 23.7008 90.3802 23.9155C90.0255 24.1301 89.7502 24.4241 89.5542 24.7975C89.3582 25.1708 89.2602 25.5955 89.2602 26.0715C89.2602 26.5475 89.3582 26.9768 89.5542 27.3595C89.7502 27.7328 90.0209 28.0268 90.3662 28.2415C90.7209 28.4561 91.1222 28.5635 91.5702 28.5635ZM99.8964 29.8655V19.4355H106.77V20.9055H101.548V23.9015H106.49V25.3715H101.548V28.3955H106.77V29.8655H99.8964ZM107.395 29.8655L110.041 26.0715L107.395 22.2915H109.257L111.427 25.4555H110.531L112.701 22.2915H114.563L111.903 26.0715L114.549 29.8655H112.687L110.545 26.6875H111.413L109.257 29.8655H107.395ZM118.967 30.0335C118.211 30.0335 117.539 29.8608 116.951 29.5155C116.373 29.1608 115.911 28.6848 115.565 28.0875C115.229 27.4901 115.061 26.8135 115.061 26.0575C115.061 25.3108 115.229 24.6388 115.565 24.0415C115.901 23.4441 116.363 22.9775 116.951 22.6415C117.539 22.2961 118.211 22.1235 118.967 22.1235C119.481 22.1235 119.961 22.2168 120.409 22.4035C120.857 22.5808 121.245 22.8281 121.571 23.1455C121.907 23.4628 122.155 23.8315 122.313 24.2515L120.927 24.8955C120.769 24.5035 120.512 24.1908 120.157 23.9575C119.812 23.7148 119.415 23.5935 118.967 23.5935C118.538 23.5935 118.151 23.7008 117.805 23.9155C117.469 24.1208 117.203 24.4148 117.007 24.7975C116.811 25.1708 116.713 25.5955 116.713 26.0715C116.713 26.5475 116.811 26.9768 117.007 27.3595C117.203 27.7328 117.469 28.0268 117.805 28.2415C118.151 28.4561 118.538 28.5635 118.967 28.5635C119.425 28.5635 119.821 28.4468 120.157 28.2135C120.503 27.9708 120.759 27.6488 120.927 27.2475L122.313 27.9055C122.164 28.3068 121.921 28.6708 121.585 28.9975C121.259 29.3148 120.871 29.5668 120.423 29.7535C119.975 29.9401 119.49 30.0335 118.967 30.0335ZM127.416 30.0335C126.66 30.0335 125.988 29.8608 125.4 29.5155C124.821 29.1608 124.368 28.6848 124.042 28.0875C123.715 27.4808 123.552 26.8041 123.552 26.0575C123.552 25.2921 123.715 24.6155 124.042 24.0275C124.378 23.4395 124.826 22.9775 125.386 22.6415C125.946 22.2961 126.58 22.1235 127.29 22.1235C127.859 22.1235 128.368 22.2215 128.816 22.4175C129.264 22.6135 129.642 22.8841 129.95 23.2295C130.258 23.5655 130.491 23.9528 130.65 24.3915C130.818 24.8301 130.902 25.2968 130.902 25.7915C130.902 25.9128 130.897 26.0388 130.888 26.1695C130.878 26.3001 130.86 26.4215 130.832 26.5335H124.798V25.2735H129.936L129.18 25.8475C129.273 25.3901 129.24 24.9841 129.082 24.6295C128.932 24.2655 128.699 23.9808 128.382 23.7755C128.074 23.5608 127.71 23.4535 127.29 23.4535C126.87 23.4535 126.496 23.5608 126.17 23.7755C125.843 23.9808 125.591 24.2795 125.414 24.6715C125.236 25.0541 125.166 25.5208 125.204 26.0715C125.157 26.5848 125.227 27.0328 125.414 27.4155C125.61 27.7981 125.88 28.0968 126.226 28.3115C126.58 28.5261 126.982 28.6335 127.43 28.6335C127.887 28.6335 128.274 28.5308 128.592 28.3255C128.918 28.1201 129.175 27.8541 129.362 27.5275L130.65 28.1575C130.5 28.5121 130.267 28.8341 129.95 29.1235C129.642 29.4035 129.268 29.6275 128.83 29.7955C128.4 29.9541 127.929 30.0335 127.416 30.0335ZM132.445 29.8655V19.2675H134.027V29.8655H132.445Z" fill="black"/>
</g>
<defs>
<filter id="filter0_d_2162_16923" x="0.983148" y="0.913449" width="153.549" height="48.0772" filterUnits="userSpaceOnUse" color-interpolation-filters="sRGB">
<feFlood flood-opacity="0" result="BackgroundImageFix"/>
<feColorMatrix in="SourceAlpha" type="matrix" values="0 0 0 0 0 0 0 0 0 0 0 0 0 0 0 0 0 0 127 0" result="hardAlpha"/>
<feOffset dy="1.08655"/>
<feGaussianBlur stdDeviation="1.08655"/>
<feColorMatrix type="matrix" values="0 0 0 0 0.0627451 0 0 0 0 0.0941176 0 0 0 0 0.156863 0 0 0 0.05 0"/>
<feBlend mode="normal" in2="BackgroundImageFix" result="effect1_dropShadow_2162_16923"/>
<feBlend mode="normal" in="SourceGraphic" in2="effect1_dropShadow_2162_16923" result="shape"/>
</filter>
</defs>
</svg>
