<svg width="21" height="21" viewBox="0 0 21 21" fill="none" xmlns="http://www.w3.org/2000/svg">
<path fill-rule="evenodd" clip-rule="evenodd" d="M10.1934 0.133789C10.4586 0.133789 10.713 0.239146 10.9005 0.426682L13.8872 3.41335C14.2777 3.80387 14.2777 4.43704 13.8872 4.82756C13.4967 5.21809 12.8635 5.21809 12.473 4.82756L11.1933 3.54793V13.0805C11.1933 13.6327 10.7456 14.0805 10.1933 14.0805C9.64105 14.0805 9.19334 13.6327 9.19334 13.0805V3.54808L7.91385 4.82756C7.52333 5.21809 6.89016 5.21809 6.49964 4.82756C6.10912 4.43704 6.10912 3.80387 6.49964 3.41335L9.48631 0.426682C9.67384 0.239146 9.9282 0.133789 10.1934 0.133789ZM2 10.5372C2 9.98491 1.55228 9.53719 1 9.53719C0.447715 9.53719 0 9.98491 0 10.5372C0 13.3414 0.953501 15.9307 2.75414 17.8263C4.5623 19.7298 7.16542 20.8705 10.3333 20.8705C13.5012 20.8705 16.1044 19.7298 17.9125 17.8263C19.7132 15.9307 20.6667 13.3414 20.6667 10.5372C20.6667 9.98491 20.219 9.53719 19.6667 9.53719C19.1144 9.53719 18.6667 9.98491 18.6667 10.5372C18.6667 12.8897 17.8702 14.967 16.4625 16.4489C15.0623 17.9229 12.9988 18.8705 10.3333 18.8705C7.66791 18.8705 5.60437 17.9229 4.2042 16.4489C2.7965 14.967 2 12.8897 2 10.5372Z" fill="white"/>
</svg>
