<svg width="19" height="20" viewBox="0 0 19 20" fill="none" xmlns="http://www.w3.org/2000/svg">
<path d="M8.73071 10C11.216 10 13.2307 7.98528 13.2307 5.5C13.2307 3.01472 11.216 1 8.73071 1C6.24543 1 4.23071 3.01472 4.23071 5.5C4.23071 7.98528 6.24543 10 8.73071 10Z" stroke="#161715" stroke-width="1.5" stroke-linecap="round" stroke-linejoin="round"/>
<path d="M1 19C1 15.517 4.465 12.7 8.731 12.7C9.595 12.7 10.432 12.8169 11.215 13.0329" stroke="#161715" stroke-width="1.5" stroke-linecap="round" stroke-linejoin="round"/>
<path d="M17.731 15.4C17.731 15.688 17.695 15.967 17.623 16.237C17.542 16.597 17.398 16.948 17.209 17.254C16.588 18.298 15.445 19 14.131 19C13.204 19 12.367 18.649 11.737 18.073C11.467 17.839 11.233 17.56 11.053 17.254C10.72 16.714 10.531 16.075 10.531 15.4C10.531 14.428 10.918 13.5371 11.548 12.8891C12.205 12.2141 13.123 11.8 14.131 11.8C15.193 11.8 16.156 12.2591 16.804 12.9971C17.38 13.6361 17.731 14.482 17.731 15.4Z" stroke="#161715" stroke-width="1.5" stroke-miterlimit="10" stroke-linecap="round" stroke-linejoin="round"/>
<path d="M15.4713 15.382H12.7893" stroke="#161715" stroke-width="1.5" stroke-miterlimit="10" stroke-linecap="round" stroke-linejoin="round"/>
<path d="M14.1309 14.068V16.759" stroke="#161715" stroke-width="1.5" stroke-miterlimit="10" stroke-linecap="round" stroke-linejoin="round"/>
</svg>
